<svg width="823" height="642" viewBox="0 0 823 642" fill="none" xmlns="http://www.w3.org/2000/svg">
<path d="M56.8508 177.33C57.6508 182.12 59.9008 195.25 63.9308 211.48C67.9608 227.71 73.7508 247.04 81.6208 264.25C83.6208 268.52 85.7208 273.25 88.4308 278.35C91.4957 284.176 94.912 289.809 98.6608 295.22C101.791 299.75 103.871 302.35 106.281 305.33C108.691 308.31 111.401 311.64 115.821 317.62C120.241 323.6 123.821 329.02 126.901 333.87C129.981 338.72 132.351 342.87 134.151 346.16C136.764 351.96 139.294 357.96 141.741 364.16C144.187 370.36 146.521 376.81 148.741 383.51C158.697 413.816 164.861 445.239 167.091 477.06C168.91 503.109 168.314 529.271 165.311 555.21L158.001 558.77L150.751 562.28C150.471 546.9 149.891 527.81 148.661 506.4C147.431 484.99 145.571 461.28 142.721 436.65C141.601 427 140.261 416.53 137.831 405.3C135.195 392.958 131.367 380.902 126.401 369.3C123.091 361.6 119.451 354.54 116.331 348.91C113.211 343.28 110.611 339.08 109.331 337.1C104.803 329.916 99.9136 322.967 94.6808 316.28C90.5508 311.03 87.4808 307.57 86.3008 306.2C80.2508 299.15 73.1408 287.72 65.3008 268.29C57.4608 248.86 49.0408 221.45 40.3008 182.44L48.5408 179.87L56.8508 177.33Z" fill="#F4ECE5"/>
<path d="M161.22 191.8L170.1 187.49L178.97 183.18C177.57 187.62 176.05 192.9 174.63 198.94C173.21 204.98 171.87 211.76 170.84 219.21C170.09 224.59 169.17 231.4 168.73 239.3C168.2 248.191 168.448 257.112 169.47 265.96C170.8 277.141 173.487 288.119 177.47 298.65C180.791 307.241 184.608 315.631 188.9 323.78C193.828 333.593 199.632 342.941 206.24 351.71C212.477 359.864 217.934 368.586 222.54 377.76C227.173 386.991 231.059 396.578 234.16 406.43C236.506 413.895 238.413 421.492 239.87 429.18L231.4 433.29L222.93 437.4C221.878 429.076 220.231 420.838 218 412.75C215.061 402.132 211.075 391.831 206.1 382C200.35 370.62 195.53 364.4 190.45 357.68C183.806 349.183 178.015 340.052 173.16 330.42C169.027 322.615 165.354 314.574 162.16 306.34C157.945 295.229 155.022 283.67 153.45 271.89C152.312 263.206 151.874 254.445 152.14 245.69C152.35 238.24 153.01 232.26 153.46 228.3C154.243 221.478 155.388 214.701 156.89 208C158.25 201.84 159.76 196.43 161.22 191.8Z" fill="#F4ECE5"/>
<path d="M210.45 211L168.15 202.44L125.85 193.88C125.52 193.806 125.22 193.638 124.984 193.397C124.748 193.155 124.586 192.851 124.52 192.52C124.435 192.171 124.436 191.807 124.523 191.459C124.61 191.11 124.781 190.788 125.02 190.52L138.55 175.52L152.08 160.52C155.19 157.032 159.113 154.363 163.5 152.75C167.685 151.224 172.21 150.878 176.58 151.75V151.75C180.602 152.576 184.349 154.41 187.47 157.08C190.742 159.869 193.32 163.382 195 167.34L203.76 187.71L212.52 208.07C212.665 208.415 212.722 208.791 212.683 209.163C212.645 209.536 212.513 209.893 212.3 210.2C212.107 210.504 211.828 210.743 211.498 210.885C211.168 211.028 210.803 211.068 210.45 211V211Z" fill="#F98638"/>
<path d="M112.559 164.23L51.2393 181.69L-10.0707 199.15C-10.5514 199.277 -11.0584 199.263 -11.5316 199.111C-12.0048 198.958 -12.4244 198.673 -12.7407 198.29C-13.0904 197.893 -13.3365 197.416 -13.4569 196.902C-13.5773 196.387 -13.5683 195.85 -13.4307 195.34L-5.74069 166.83L1.94931 138.33C3.68871 131.694 7.04541 125.592 11.7193 120.57C16.2057 115.772 21.9075 112.278 28.2193 110.46C34.0513 108.817 40.2021 108.662 46.1093 110.01C52.2448 111.419 57.9709 114.229 62.8393 118.22L87.9993 138.65L113.209 159.08C113.632 159.428 113.958 159.877 114.157 160.387C114.357 160.896 114.423 161.448 114.349 161.99C114.302 162.497 114.108 162.98 113.789 163.378C113.471 163.776 113.044 164.072 112.559 164.23Z" fill="#F98638"/>
<path d="M210.69 324.8L205.93 326.09L201.17 327.37C201.143 327.378 201.115 327.376 201.089 327.365C201.064 327.354 201.043 327.334 201.03 327.31C201.019 327.283 201.017 327.253 201.027 327.225C201.036 327.198 201.055 327.175 201.08 327.16C204.331 325.099 207.109 322.372 209.23 319.16C211.1 316.378 212.14 313.121 212.23 309.77C212.184 306.579 211.253 303.463 209.54 300.77C207.797 297.908 205.377 295.52 202.492 293.816C199.607 292.112 196.347 291.145 193 291C187.457 290.594 181.911 291.758 177 294.36C181.694 292.031 185.461 288.182 187.69 283.44C189.706 279.283 190.278 274.572 189.316 270.054C188.355 265.535 185.914 261.466 182.38 258.49C179.115 255.628 175.007 253.907 170.677 253.586C166.348 253.265 162.031 254.361 158.38 256.71C154.445 259.179 151.344 262.775 149.48 267.03C150.669 262.009 150.285 256.745 148.38 251.95C146.558 247.29 143.255 243.359 138.98 240.76C134.597 238.199 129.505 237.119 124.46 237.68C119.563 238.139 114.982 240.297 111.51 243.78C107.42 248.07 105.51 254.29 106.01 260.71C106.625 267.716 109.886 274.224 115.13 278.91C115.167 278.949 115.188 279.001 115.188 279.055C115.188 279.109 115.167 279.161 115.13 279.2C115.101 279.247 115.055 279.283 115.002 279.299C114.948 279.316 114.891 279.313 114.84 279.29C112.455 278.297 109.898 277.785 107.315 277.785C104.732 277.785 102.174 278.297 99.7898 279.29C97.4858 280.131 95.4011 281.481 93.6911 283.24C91.9811 284.999 90.6898 287.12 89.9132 289.447C89.1367 291.774 88.895 294.245 89.206 296.679C89.5171 299.112 90.3729 301.443 91.7098 303.5C93.0865 305.882 94.9509 307.946 97.1808 309.557C99.4108 311.169 101.956 312.291 104.65 312.85V312.85C98.1869 313.063 92.0729 315.833 87.6498 320.55C83.6498 324.89 81.4498 330.47 81.9898 335.7C82.6018 340.506 85.014 344.902 88.7398 348C92.8002 351.505 97.913 353.556 103.27 353.83L98.3698 355.16L93.4798 356.48C90.2724 357.343 87.2665 358.829 84.634 360.854C82.0016 362.88 79.7942 365.404 78.1383 368.283C76.4823 371.163 75.4101 374.34 74.9831 377.634C74.5561 380.928 74.7827 384.274 75.6498 387.48V387.48C77.3992 393.953 81.647 399.467 87.4597 402.811C93.2724 406.154 100.175 407.053 106.65 405.31L126.79 399.87L146.93 394.44L167.23 471.1L187.53 547.76L206.07 543.28L224.62 538.8L204.1 461.63L183.58 384.5L203.72 379.07L223.86 373.63C227.067 372.766 230.072 371.279 232.703 369.253C235.335 367.227 237.542 364.703 239.198 361.824C240.854 358.945 241.926 355.768 242.354 352.475C242.781 349.181 242.556 345.836 241.69 342.63V342.63C240.826 339.423 239.339 336.418 237.313 333.786C235.287 331.154 232.763 328.948 229.884 327.292C227.005 325.636 223.828 324.564 220.535 324.136C217.241 323.709 213.896 323.934 210.69 324.8V324.8Z" fill="#666538"/>
<path d="M183.58 384.5L173.71 386.88L163.83 389.27L177.25 400.44L190.67 411.61L187.13 398.06L183.58 384.5Z" fill="#353519"/>
<path d="M104.671 314.13C104.393 314.126 104.124 314.035 103.901 313.87C103.681 313.692 103.526 313.445 103.461 313.17C103.422 313.011 103.415 312.846 103.441 312.685C103.467 312.523 103.525 312.369 103.611 312.23C103.695 312.089 103.806 311.967 103.938 311.871C104.071 311.775 104.221 311.706 104.381 311.67L108.631 310.67L112.881 309.67C113.04 309.631 113.204 309.624 113.366 309.65C113.527 309.676 113.682 309.734 113.821 309.82C113.963 309.904 114.086 310.016 114.184 310.148C114.282 310.281 114.353 310.431 114.392 310.592C114.431 310.752 114.438 310.918 114.412 311.081C114.386 311.244 114.328 311.4 114.241 311.54C114.066 311.819 113.79 312.02 113.471 312.1L109.221 313.1L104.971 314.1C104.921 314.109 104.87 314.109 104.821 314.1L104.671 314.13Z" fill="#2B3D0A"/>
<path d="M175.62 335.08C175.34 335.081 175.068 334.986 174.85 334.81C174.623 334.641 174.463 334.396 174.4 334.12C174.362 333.961 174.355 333.797 174.381 333.635C174.406 333.474 174.464 333.319 174.55 333.18C174.634 333.039 174.746 332.916 174.878 332.818C175.01 332.72 175.161 332.649 175.32 332.61L188.57 329.41L201.82 326.22C201.978 326.18 202.143 326.171 202.304 326.195C202.466 326.219 202.621 326.275 202.76 326.36C203.043 326.536 203.244 326.817 203.32 327.14C203.361 327.298 203.37 327.463 203.346 327.624C203.321 327.786 203.265 327.941 203.18 328.08C203.005 328.366 202.725 328.57 202.4 328.65L189.16 331.84L175.91 335H175.76L175.62 335.08Z" fill="#2B3D0A"/>
<path d="M147.67 272.78H147.44L147.21 272.71C147.057 272.65 146.918 272.561 146.799 272.447C146.681 272.333 146.587 272.197 146.522 272.046C146.457 271.896 146.422 271.733 146.42 271.569C146.418 271.405 146.449 271.242 146.51 271.09L147.4 268.84L148.3 266.59C148.358 266.437 148.446 266.298 148.56 266.181C148.673 266.064 148.809 265.972 148.96 265.91C149.118 265.84 149.288 265.804 149.46 265.804C149.632 265.804 149.803 265.84 149.96 265.91C150.27 266.033 150.518 266.274 150.65 266.58C150.718 266.738 150.753 266.908 150.753 267.08C150.753 267.252 150.718 267.422 150.65 267.58L149.76 269.82L148.86 272.07C148.768 272.303 148.608 272.502 148.402 272.643C148.195 272.784 147.95 272.859 147.7 272.86L147.67 272.78Z" fill="#2B3D0A"/>
<path d="M32.7808 388H32.6608H32.5508C33.9731 398.765 34.8409 409.596 35.1508 420.45C35.6308 431.31 36.0508 442.17 37.3908 452.95C38.6276 463.834 41.287 474.508 45.3008 484.7C49.4208 494.76 55.2208 503.94 63.3008 511.24C67.1682 514.739 71.4743 517.721 76.1108 520.11C80.7413 522.512 85.6523 524.329 90.7308 525.52C95.3508 526.61 100.531 526.52 105.571 526.92C110.611 527.32 115.501 528.09 119.571 530.92C132.251 539.74 132.151 552.33 128.571 565.48C124.991 578.63 117.881 592.33 116.571 603.38C115.571 611.71 116.811 620.29 119.211 628.59C121.686 636.745 124.959 644.636 128.981 652.15C132.406 658.721 136.219 665.082 140.401 671.2C144.601 677.33 149.121 683.2 153.821 688.98C154.701 690.06 156.921 692.79 160.211 696.57C163.501 700.35 167.861 705.19 173.021 710.48C178.181 715.77 183.831 721.22 188.311 725.48C192.791 729.74 196.001 732.69 196.001 732.69L207.571 727.86L219.141 723C219.141 723 207.321 713.37 192.761 698.74C178.201 684.11 160.871 664.5 149.851 644.53C145.633 636.903 143.035 628.487 142.221 619.81C141.396 611.341 142.392 602.793 145.141 594.74C148.891 583.88 152.611 571.95 153.751 560.11C154.891 548.27 153.431 536.51 146.801 526.02C140.054 515.442 129.536 507.827 117.381 504.72C112.389 503.647 107.341 502.856 102.261 502.35C97.2108 501.67 92.2608 500.8 87.5708 498.75C83.7008 496.999 80.1727 494.575 77.1508 491.59C74.1015 488.595 71.4588 485.213 69.2908 481.53C65.1732 474.432 62.2604 466.7 60.6708 458.65C59.0614 450.536 58.1083 442.306 57.8208 434.04C57.4408 425.82 57.3908 417.55 56.9708 409.33C56.669 401.116 55.6653 392.943 53.9708 384.9L43.3608 386.43L32.7808 388Z" fill="#BAB653"/>
<path d="M34.1406 404.74L45.8806 416.59L57.6106 428.44C57.6106 428.44 57.4606 421.73 57.2006 414.55C56.9406 407.37 56.5606 399.75 56.1006 397.94L48.2906 391.63L40.4706 385.32L37.3106 395L34.1406 404.74Z" fill="#353519"/>
<path d="M-8.87934 326.87C-13.1605 325.757 -17.6705 325.889 -21.8793 327.25C-25.9838 328.563 -29.5906 331.095 -32.2193 334.51C-34.9739 338.165 -36.5724 342.56 -36.8093 347.13C-37.1395 351.835 -35.6098 356.481 -32.5493 360.07C-30.2571 362.649 -27.2829 364.528 -23.9693 365.49C-20.4908 366.507 -16.8141 366.645 -13.2693 365.89C-18.1969 366.946 -22.5782 369.744 -25.6093 373.77C-28.5853 377.711 -30.0089 382.608 -29.6093 387.53C-29.1786 392.474 -26.9684 397.093 -23.3893 400.53C-19.9448 403.896 -15.3631 405.848 -10.5493 406C-6.12747 406.017 -1.8392 404.485 1.57067 401.67C3.40399 400.241 5.02369 398.557 6.38067 396.67C6.61638 399.303 7.23629 401.887 8.22067 404.34C9.99166 409.029 13.2745 412.995 17.5507 415.61C21.7817 418.077 26.6702 419.18 31.5507 418.77C36.481 418.434 41.1217 416.32 44.6107 412.82C47.0601 410.26 48.7856 407.096 49.6107 403.65C50.1224 401.59 50.3645 399.472 50.3307 397.35C52.8504 401.997 56.5252 405.917 61.0007 408.73C65.1052 411.349 69.93 412.608 74.7907 412.33C77.1284 412.184 79.4326 411.699 81.6307 410.89C85.4787 409.527 88.762 406.92 90.9607 403.48C93.2247 399.768 94.1329 395.386 93.5307 391.08C93.271 388.853 92.6848 386.676 91.7907 384.62C96.4498 387.219 101.898 388.026 107.111 386.89C112.045 385.857 116.395 382.968 119.261 378.82C121.884 374.839 122.898 370.011 122.101 365.31C121.425 360.838 119.446 356.664 116.411 353.31C114.285 351.041 111.683 349.271 108.791 348.13C106.968 347.403 105.064 346.899 103.121 346.63C105.273 345.688 107.291 344.464 109.121 342.99C111.944 340.772 114.114 337.832 115.401 334.48C117.551 328.68 116.621 321.96 113.581 316.26C112.115 313.376 110.082 310.817 107.605 308.736C105.127 306.655 102.255 305.095 99.1607 304.15C94.4474 302.936 89.467 303.287 84.9707 305.15C82.4248 306.15 80.029 307.496 77.8507 309.15C78.6011 306.53 79.0112 303.825 79.0707 301.1C79.2183 296.966 78.2105 292.873 76.1607 289.28C72.3007 282.75 64.7707 278.68 56.7907 277.56C48.8107 276.44 40.3607 278.29 34.6507 283.61C31.2689 286.878 28.9394 291.08 27.9607 295.68C27.3069 298.522 27.0245 301.436 27.1207 304.35C25.0937 300.094 21.9915 296.441 18.1207 293.75C14.4487 291.18 10.0922 289.766 5.61067 289.69C-0.482331 289.759 -6.33315 292.086 -10.8093 296.22C-15.2193 300.22 -18.0693 305.67 -17.8093 311.37C-17.6288 315.241 -16.2405 318.958 -13.8393 322C-12.4035 323.831 -10.7363 325.468 -8.87934 326.87V326.87Z" fill="#DEB8FC"/>
<path d="M30.7504 333.83C27.5355 332.025 23.9589 330.959 20.2804 330.71C18.4367 330.588 16.5884 330.866 14.8623 331.525C13.1362 332.185 11.5731 333.21 10.2804 334.53C8.5312 336.294 7.37245 338.557 6.96406 341.007C6.55568 343.458 6.9178 345.974 8.00044 348.21C8.99315 350.487 10.5515 352.472 12.5275 353.978C14.5035 355.483 16.8315 356.458 19.2904 356.81C19.0304 356.81 18.5104 357.25 18.0104 357.81C17.5104 358.37 17.0104 358.92 16.9004 359.08C15.7078 360.358 14.799 361.875 14.2338 363.529C13.6685 365.184 13.4595 366.939 13.6204 368.68C13.8014 370.419 14.3663 372.096 15.2742 373.59C16.1821 375.084 17.4104 376.358 18.8704 377.32C21.8104 379.32 25.6604 379.53 29.2904 378.62C32.8197 377.774 36.0057 375.869 38.4204 373.16C39.4932 371.776 40.4689 370.319 41.3404 368.8C42.2204 367.32 42.8604 366.12 42.8604 366.12C45.2004 370.35 46.6504 372.74 47.5304 374.12C47.8669 374.691 48.2552 375.23 48.6904 375.73C49.8699 376.822 51.196 377.744 52.6304 378.47C55.3437 379.937 58.4576 380.491 61.5104 380.05C62.3064 379.918 63.0894 379.718 63.8504 379.45C65.8231 378.737 67.614 377.598 69.0954 376.113C70.5768 374.628 71.7122 372.834 72.4204 370.86C73.0451 369.314 73.3197 367.648 73.2246 365.983C73.1295 364.318 72.667 362.695 71.8704 361.23C71.1245 360.04 70.278 358.916 69.3404 357.87C68.4504 356.87 67.7104 356.1 67.7104 356.1L69.0704 355.75L70.2704 355.43C72.0378 354.921 73.6858 354.065 75.1179 352.911C76.55 351.757 77.7374 350.329 78.6104 348.71C79.5285 347.097 80.1076 345.313 80.3122 343.468C80.5168 341.623 80.3427 339.755 79.8004 337.98C79.1162 335.856 77.8684 333.958 76.19 332.487C74.5117 331.017 72.4658 330.029 70.2704 329.63C68.077 329.17 65.8107 329.182 63.6225 329.667C61.4343 330.151 59.3745 331.097 57.5804 332.44C57.8033 331.721 57.9672 330.985 58.0704 330.24C58.209 329.246 58.2458 328.241 58.1804 327.24C57.9563 324.42 56.9136 321.726 55.1804 319.49C54.2917 318.301 53.2455 317.238 52.0704 316.33C49.7353 314.617 47.003 313.526 44.1304 313.16C41.0563 312.713 37.9242 313.391 35.3104 315.07C33.0912 316.582 31.3854 318.734 30.4204 321.24C29.8866 322.518 29.5332 323.864 29.3704 325.24C29.2959 326.048 29.2959 326.862 29.3704 327.67C29.4243 328.299 29.5179 328.923 29.6504 329.54C29.7104 329.9 29.8204 330.91 30.0004 331.86C30.1804 332.81 30.4304 333.66 30.7504 333.83Z" fill="#F98638"/>
<path d="M107.89 508.68C107.89 508.68 107.69 490.54 109.35 468.12C111.01 445.7 114.54 419 122 401.84C123.679 397.787 126.699 394.434 130.554 392.34C134.41 390.247 138.867 389.541 143.18 390.34C147.508 390.991 151.475 393.123 154.406 396.373C157.337 399.622 159.049 403.788 159.25 408.16C159.532 413.876 158.982 419.602 157.62 425.16C155.677 433.218 152.93 441.061 149.42 448.57L136.3 482L123.16 515.5C121.93 514.594 120.629 513.788 119.27 513.09C115.656 511.194 111.838 509.715 107.89 508.68V508.68Z" fill="#BAB653"/>
<path d="M117.64 505.91H117.49H117.34C117.18 505.871 117.03 505.8 116.897 505.702C116.765 505.605 116.654 505.481 116.57 505.34C116.484 505.201 116.426 505.047 116.4 504.885C116.374 504.724 116.381 504.559 116.42 504.4L128.54 454.54L140.66 404.69C140.696 404.53 140.765 404.38 140.861 404.248C140.957 404.115 141.079 404.004 141.22 403.92C141.431 403.79 141.676 403.726 141.923 403.735C142.171 403.745 142.41 403.828 142.61 403.973C142.811 404.119 142.963 404.321 143.049 404.554C143.134 404.786 143.148 405.039 143.09 405.28L131 455.1L118.85 505C118.782 505.274 118.623 505.517 118.4 505.69C118.178 505.846 117.911 505.924 117.64 505.91Z" fill="#666538"/>
<path d="M485.601 181.93C484.501 185.67 481.521 195.93 478.741 209.1C475.961 222.27 473.361 238.26 473.011 253.46C472.931 257.23 472.831 261.37 473.011 266.04C473.183 271.328 473.678 276.601 474.491 281.83C475.161 286.2 475.751 288.83 476.491 291.83C477.231 294.83 477.981 298.19 479.071 304.06C480.161 309.93 480.881 315.12 481.381 319.69C481.881 324.26 482.151 328.13 482.311 331.13C482.171 336.23 481.891 341.463 481.471 346.83C481.041 352.19 480.471 357.67 479.711 363.26C476.278 388.662 469.711 413.542 460.161 437.33C452.339 456.799 442.731 475.502 431.461 493.2H418.461C423.651 481.98 429.931 467.98 436.551 452.07C443.171 436.16 450.141 418.37 456.721 399.56C459.301 392.19 462.001 384.15 464.191 375.18C466.609 365.344 468.065 355.297 468.541 345.18C468.851 338.45 468.701 332.07 468.421 326.9C468.141 321.73 467.731 317.79 467.531 315.9C466.777 309.115 465.679 302.373 464.241 295.7C463.101 290.46 462.091 286.88 461.721 285.47C459.821 278.26 458.721 267.47 459.881 250.72C461.041 233.97 464.551 211.15 471.881 179.86L478.741 180.86L485.601 181.93Z" fill="#F4ECE5"/>
<path d="M534.22 301.77H550.08C547.51 304.48 544.56 307.77 541.41 311.63C538.26 315.49 534.91 319.94 531.56 324.96C529.13 328.59 526.07 333.19 522.98 338.74C519.484 344.986 516.536 351.524 514.17 358.28C511.202 366.825 509.288 375.701 508.47 384.71C507.863 392.087 507.68 399.492 507.92 406.89C508.038 415.715 508.955 424.511 510.66 433.17C512.306 441.25 513.193 449.465 513.31 457.71C513.417 466.011 512.859 474.308 511.64 482.52C510.726 488.751 509.441 494.922 507.79 501H492.66C494.812 494.609 496.506 488.072 497.73 481.44C499.34 472.722 500.08 463.865 499.94 455C499.804 447.258 498.869 439.55 497.15 432C495.335 423.526 494.354 414.895 494.22 406.23C493.977 399.136 494.147 392.034 494.73 384.96C495.577 375.435 497.52 366.04 500.52 356.96C502.743 350.28 505.499 343.789 508.76 337.55C511.53 332.24 514.1 328.15 515.76 325.44C518.724 320.771 521.932 316.261 525.37 311.93C528.55 308 531.54 304.61 534.22 301.77Z" fill="#F4ECE5"/>
<path d="M565.35 331.92L536.531 312.63L507.711 293.34C507.486 293.186 507.312 292.969 507.211 292.716C507.109 292.464 507.085 292.187 507.14 291.92C507.184 291.632 507.298 291.358 507.472 291.125C507.647 290.891 507.876 290.704 508.14 290.58L522.77 283.58L537.41 276.58C540.786 274.933 544.517 274.146 548.271 274.29C551.839 274.443 555.298 275.57 558.271 277.55V277.55C561.009 279.39 563.235 281.895 564.74 284.83C566.303 287.902 567.134 291.294 567.17 294.74L567.45 312.55L567.74 330.36C567.743 330.662 567.669 330.96 567.526 331.226C567.383 331.491 567.174 331.717 566.92 331.88C566.692 332.041 566.421 332.13 566.142 332.137C565.862 332.144 565.587 332.069 565.35 331.92V331.92Z" fill="#F98638"/>
<path d="M530.471 192L480.001 183.12L429.541 174.23C429.15 174.15 428.791 173.961 428.504 173.685C428.217 173.409 428.015 173.057 427.921 172.67C427.808 172.26 427.798 171.829 427.891 171.414C427.983 171 428.175 170.614 428.451 170.29L444.001 152.38L459.561 134.48C463.147 130.296 467.712 127.063 472.851 125.07C477.778 123.173 483.128 122.648 488.331 123.55C493.123 124.4 497.625 126.443 501.421 129.49C505.364 132.66 508.517 136.703 510.631 141.3L521.691 164.91L532.751 188.52C532.934 188.919 533.011 189.358 532.976 189.796C532.941 190.234 532.795 190.655 532.551 191.02C532.337 191.368 532.026 191.646 531.657 191.82C531.287 191.994 530.875 192.057 530.471 192Z" fill="#F98638"/>
<path d="M324.189 271.38L349.339 271.16L374.499 270.94C382.184 269.627 389.122 265.542 393.999 259.46C398.878 253.45 401.37 245.852 400.999 238.12C400.589 229.99 397.059 224.12 391.569 220.21C386.079 216.3 378.569 214.36 370.349 214.09C375.201 215.207 380.274 214.891 384.949 213.18C389.372 211.586 393.167 208.618 395.779 204.71C398.561 200.373 399.703 195.185 398.999 190.08C398.505 185.718 396.84 181.572 394.179 178.08C389.879 172.73 383.659 169.68 376.929 168.08C370.254 166.625 363.406 166.123 356.589 166.59C356.459 166.59 355.479 166.59 354.529 166.69C353.888 166.672 353.248 166.767 352.639 166.97H352.439C352.339 166.97 352.239 166.97 352.229 166.97C352.219 166.97 355.999 165.97 360.889 163.9C365.779 161.83 371.769 158.68 376.119 154.01C378.961 150.917 381.115 147.256 382.439 143.27C383.944 139.088 383.944 134.512 382.439 130.33C381.344 127.636 379.603 125.252 377.369 123.39C376 122.225 374.504 121.219 372.909 120.39C364.219 115.76 353.909 116.6 345.619 118.72C340.298 120.032 335.176 122.05 330.389 124.72C332.229 111.61 331.099 99.8901 327.839 90.8701C324.579 81.8501 319.189 75.5301 312.529 73.2001C309.581 72.1996 306.435 71.9285 303.359 72.4101C301.761 72.6297 300.196 73.0462 298.699 73.6501C292.189 76.3801 287.169 82.9301 284.419 91.9801C281.669 101.03 281.169 112.57 283.699 125.3C277.563 123.67 271.264 122.724 264.919 122.48C255.769 122.22 245.609 123.83 240.109 130.94C239.613 131.574 239.161 132.242 238.759 132.94C238.322 133.708 237.941 134.507 237.619 135.33C236.883 137.522 236.466 139.809 236.379 142.12C236.324 143.753 236.475 145.386 236.829 146.98C237.949 151.98 241.079 156.49 245.729 160.21C251.053 164.271 257.194 167.126 263.729 168.58V168.58C257.339 168.01 249.179 167.92 241.729 169.78C234.279 171.64 227.579 175.42 224.099 182.62C222.178 186.615 221.509 191.098 222.179 195.48C222.838 199.883 224.743 204.005 227.669 207.36C230.725 210.819 234.472 213.599 238.669 215.52C244.809 218.248 251.424 219.743 258.139 219.92L264.279 219.76L270.419 219.6C268.169 219.81 266.029 219.93 263.989 219.98C261.949 220.03 259.989 219.98 258.139 219.92L249.369 220.16L240.599 220.39C233.77 220.583 227.252 223.293 222.299 228C217.337 232.673 214.382 239.091 214.059 245.9C213.879 249.585 214.462 253.268 215.771 256.718C217.08 260.167 219.087 263.31 221.667 265.947C224.246 268.585 227.343 270.662 230.763 272.048C234.182 273.434 237.851 274.098 241.539 274L261.709 273.27L281.869 272.55L282.139 358.55L282.399 444.55H324.399C324.399 429.55 324.339 393.72 324.309 357.94C324.279 322.16 324.219 286.43 324.189 271.38Z" fill="#BAB653"/>
<path d="M324.019 271.22H312.189H300.359L312.189 289.49L324.019 307.77V289.49V271.22Z" fill="#353519"/>
<path d="M352.66 168.43H341.66C341.463 168.433 341.267 168.395 341.085 168.32C340.903 168.244 340.738 168.132 340.6 167.99C340.46 167.851 340.35 167.686 340.274 167.504C340.199 167.322 340.16 167.127 340.16 166.93C340.162 166.533 340.32 166.152 340.6 165.87C340.739 165.73 340.904 165.62 341.086 165.544C341.268 165.468 341.463 165.43 341.66 165.43H352.66C352.857 165.43 353.052 165.468 353.234 165.544C353.416 165.62 353.581 165.73 353.72 165.87C354.001 166.152 354.159 166.533 354.16 166.93C354.161 167.127 354.122 167.322 354.046 167.504C353.971 167.686 353.86 167.851 353.72 167.99C353.583 168.132 353.418 168.244 353.236 168.32C353.053 168.395 352.857 168.433 352.66 168.43V168.43Z" fill="#666538"/>
<path d="M287.439 130.38C287.251 130.382 287.065 130.348 286.889 130.28C286.707 130.206 286.541 130.097 286.399 129.96L284.539 128.17L282.679 126.37C282.394 126.094 282.229 125.717 282.219 125.32C282.214 125.123 282.248 124.926 282.32 124.742C282.393 124.559 282.501 124.391 282.639 124.25C282.915 123.965 283.292 123.799 283.689 123.79C283.887 123.785 284.083 123.819 284.267 123.891C284.451 123.963 284.618 124.072 284.759 124.21L286.619 126.01L288.479 127.8C288.624 127.937 288.739 128.101 288.818 128.283C288.897 128.465 288.938 128.662 288.939 128.86C288.945 129.056 288.91 129.251 288.838 129.433C288.766 129.615 288.657 129.781 288.519 129.92C288.378 130.069 288.208 130.188 288.019 130.27C287.834 130.341 287.638 130.378 287.439 130.38V130.38Z" fill="#666538"/>
<path d="M268.71 219.62L262.57 219.78L256.43 219.94C258.28 220.03 260.23 220.06 262.28 220C264.33 219.94 266.46 219.83 268.71 219.62Z" fill="#BAB653"/>
<path d="M266.42 221.27H248C247.803 221.273 247.607 221.235 247.425 221.159C247.242 221.084 247.077 220.972 246.94 220.83C246.8 220.691 246.689 220.526 246.614 220.344C246.538 220.162 246.5 219.967 246.5 219.77C246.501 219.373 246.66 218.992 246.94 218.71C247.079 218.57 247.244 218.459 247.426 218.384C247.608 218.308 247.803 218.27 248 218.27H266.43C266.831 218.271 267.215 218.429 267.5 218.71C267.778 218.993 267.932 219.374 267.93 219.77C267.931 219.967 267.893 220.163 267.819 220.346C267.744 220.528 267.633 220.694 267.494 220.834C267.354 220.973 267.188 221.084 267.006 221.159C266.823 221.233 266.627 221.271 266.43 221.27H266.42Z" fill="#666538"/>
<path d="M234.799 366.44C234.874 373.424 235.921 380.364 237.909 387.06C239.878 393.793 242.994 400.136 247.119 405.81C249.888 409.558 253.143 412.921 256.799 415.81C260.439 418.713 264.481 421.071 268.799 422.81C273.385 424.699 278.363 425.437 283.299 424.96C288.213 424.366 293.022 423.097 297.589 421.19C300.84 419.847 304.297 419.069 307.809 418.89C311.326 418.741 314.792 419.769 317.659 421.81C320.484 423.93 322.789 426.666 324.399 429.81C326.032 432.926 327.297 436.222 328.169 439.63L330.469 447.72L332.779 455.8L340.869 453.64L348.959 451.48C349.419 451.36 348.299 447.1 346.959 442.67C345.619 438.24 344.169 433.67 343.879 432.9C342.319 428.791 340.384 424.834 338.099 421.08C335.851 417.327 333.128 413.878 329.999 410.82C327.676 408.579 325.059 406.665 322.219 405.13C319.383 403.581 316.296 402.545 313.099 402.07C309.476 401.652 305.805 401.937 302.289 402.91C298.739 403.78 295.289 405.04 291.809 406.06C288.282 407.123 284.601 407.593 280.919 407.45C277.237 407.318 273.626 406.397 270.329 404.75C260.019 399.51 255.329 389.55 253.279 378.48C251.229 367.41 251.869 355.22 252.199 345.48C252.369 340.71 252.589 335.48 252.889 329.84C253.189 324.2 253.549 318.16 254.019 311.75L245.569 310.92L237.109 310.09C236.529 316.197 236.046 322.477 235.659 328.93C235.273 335.383 235.009 341.997 234.869 348.77C234.799 351.77 234.769 354.77 234.759 357.7C234.749 360.63 234.759 363.56 234.799 366.44Z" fill="#BAB653"/>
<path d="M251.999 366.41L251.949 361.91V357.42V356.73C251.949 356.54 251.949 356.38 251.949 356.21C251.949 355.82 251.949 355.3 251.949 354.55C251.949 353.8 251.949 352.84 252.019 351.55C252.189 346.42 252.409 343.32 252.569 340.71C252.729 338.1 252.849 335.98 252.799 332.79C252.799 330.79 252.689 329.92 252.599 328.84C252.509 327.76 252.399 326.47 252.289 323.65C252.169 320.53 252.129 317.65 252.139 315.23C252.149 312.81 252.199 310.64 252.259 308.96L242.479 309.8L232.689 310.65C232.689 313.51 232.799 317.26 232.869 321.22C232.939 325.18 233.019 329.33 233.089 333.04C233.249 341.8 233.369 348.43 233.629 354.3C233.889 360.17 234.259 365.3 234.929 371.03C235.109 372.54 235.289 373.91 235.449 375.11C235.609 376.31 235.749 377.33 235.869 378.11L247.869 369.36L251.989 366.36L251.999 366.41Z" fill="#353519"/>
<path d="M260.73 402.51C257.303 398.559 252.621 395.907 247.47 395C243.745 394.273 239.9 394.454 236.26 395.53C236.16 394.98 236.04 394.44 235.9 393.9C235.247 391.444 234.095 389.149 232.517 387.157C230.938 385.165 228.967 383.519 226.725 382.321C224.484 381.123 222.02 380.4 219.487 380.195C216.953 379.99 214.405 380.308 212 381.13C210.721 381.56 209.488 382.116 208.32 382.79C207.072 378.999 204.546 375.758 201.173 373.622C197.801 371.487 193.791 370.588 189.83 371.08C187.884 371.315 186.01 371.963 184.335 372.983C182.66 374.002 181.223 375.368 180.12 376.989C179.017 378.61 178.274 380.448 177.942 382.38C177.609 384.313 177.693 386.294 178.19 388.19C179.238 392.244 181.724 395.778 185.185 398.134C188.645 400.491 192.844 401.51 197 401C197.28 401 197.55 400.89 197.82 400.84C197.807 402.698 198.049 404.549 198.54 406.34C199.191 408.803 200.342 411.105 201.922 413.102C203.502 415.1 205.477 416.751 207.724 417.951C209.97 419.151 212.44 419.875 214.979 420.078C217.518 420.281 220.072 419.958 222.48 419.13C223.705 418.705 224.884 418.159 226 417.5C226.576 418.508 227.246 419.459 228 420.34C231.476 424.227 236.136 426.86 241.26 427.83C246.383 428.801 251.683 428.056 256.34 425.71C258.414 424.718 260.225 423.252 261.628 421.43C263.03 419.609 263.984 417.483 264.412 415.224C264.841 412.965 264.732 410.637 264.094 408.429C263.456 406.22 262.307 404.193 260.74 402.51H260.73Z" fill="#BAB653"/>
<path d="M253.061 413.27H252.911H252.761C248.911 412.27 245.061 411.27 241.241 410.12C237.421 408.97 233.641 407.71 229.921 406.37C220.967 403.126 212.224 399.329 203.741 395C195.205 390.682 186.942 385.843 179.001 380.51C178.864 380.418 178.747 380.3 178.656 380.163C178.565 380.025 178.502 379.871 178.471 379.71C178.41 379.384 178.478 379.047 178.661 378.77C178.849 378.498 179.136 378.312 179.461 378.25C179.622 378.215 179.788 378.214 179.949 378.245C180.111 378.276 180.264 378.338 180.401 378.43C188.259 383.716 196.435 388.515 204.881 392.8C213.268 397.065 221.911 400.806 230.761 404C234.448 405.333 238.184 406.566 241.971 407.7C245.741 408.84 249.551 409.89 253.361 410.82C253.68 410.907 253.955 411.11 254.131 411.39C254.298 411.677 254.348 412.017 254.271 412.34C254.203 412.614 254.045 412.857 253.821 413.03C253.6 413.189 253.333 413.273 253.061 413.27V413.27Z" fill="#666538"/>
<path d="M264.819 249.77C277.569 227.9 277.869 213.67 272.369 210.49C266.869 207.31 255.579 215.19 245.119 237.55C245.589 212.01 238.419 200 231.899 201.35C225.379 202.7 219.509 217.4 222.549 245.29C209.089 220.29 195.759 211.6 189.729 214.49C183.699 217.38 184.949 231.85 200.659 253.19C178.789 240.45 164.549 240.14 161.379 245.64C158.209 251.14 166.079 262.43 188.439 272.89C162.899 272.43 150.889 279.59 152.239 286.11C153.589 292.63 168.239 298.5 196.179 295.46C171.179 308.92 162.489 322.25 165.379 328.29C168.269 334.33 182.739 333.07 204.079 317.36C191.339 339.23 191.029 353.46 196.529 356.64C202.029 359.82 213.319 351.94 223.779 329.58C223.319 355.11 230.479 367.12 236.999 365.78C243.519 364.44 249.389 349.78 246.349 321.84C259.809 346.84 273.139 355.53 279.179 352.64C285.219 349.75 283.959 335.27 268.249 313.93C290.119 326.68 304.349 326.98 307.529 321.49C310.709 316 302.819 304.69 280.469 294.23C305.999 294.7 318.009 287.53 316.669 281.02C315.329 274.51 300.619 268.62 272.729 271.67C297.729 258.2 306.419 244.87 303.529 238.84C300.639 232.81 286.159 234.06 264.819 249.77Z" fill="#F4ECE5"/>
<path d="M249.05 280.2C250.111 283.938 249.842 287.928 248.291 291.491C246.74 295.053 244.002 297.968 240.543 299.738C237.084 301.509 233.119 302.026 229.322 301.201C225.525 300.376 222.131 298.261 219.719 295.215C217.306 292.169 216.024 288.381 216.09 284.496C216.157 280.611 217.568 276.87 220.083 273.908C222.599 270.947 226.063 268.949 229.886 268.254C233.709 267.56 237.654 268.212 241.05 270.1C242.984 271.173 244.686 272.618 246.059 274.351C247.432 276.085 248.449 278.072 249.05 280.2V280.2Z" fill="#DEB8FC"/>
<path d="M465.31 282.48L460.38 282.61L455.45 282.74C455.38 282.74 455.34 282.74 455.34 282.65C455.334 282.622 455.339 282.593 455.354 282.569C455.369 282.545 455.392 282.527 455.42 282.52C459.061 281.285 462.401 279.295 465.22 276.68C467.679 274.407 469.444 271.484 470.31 268.25C471.019 265.141 470.845 261.896 469.81 258.88C469.266 257.191 468.51 255.578 467.56 254.08C464.815 249.956 460.732 246.905 456 245.44C450.722 243.77 445.082 243.614 439.72 244.99C444.827 243.823 449.39 240.965 452.67 236.88C455.609 233.314 457.274 228.869 457.401 224.25C457.528 219.631 456.109 215.101 453.37 211.38C450.871 207.803 447.268 205.145 443.113 203.814C438.959 202.483 434.482 202.552 430.37 204.01C425.98 205.511 422.141 208.294 419.35 212C421.702 207.375 422.568 202.136 421.83 197C421.135 192.071 418.845 187.504 415.31 184C411.658 180.477 406.964 178.232 401.93 177.6C397.069 176.896 392.115 177.919 387.93 180.49C382.93 183.69 379.61 189.29 378.61 195.66C377.557 202.61 379.199 209.7 383.2 215.48C383.24 215.524 383.261 215.582 383.259 215.642C383.257 215.701 383.232 215.757 383.189 215.799C383.146 215.84 383.089 215.863 383.03 215.864C382.97 215.864 382.913 215.841 382.87 215.8C380.785 214.275 378.419 213.177 375.908 212.571C373.397 211.966 370.791 211.863 368.24 212.27C365.887 212.591 363.626 213.397 361.6 214.636C359.574 215.876 357.828 217.521 356.47 219.47C355.149 221.604 354.306 223.999 353.998 226.49C353.691 228.981 353.927 231.509 354.69 233.9C355.473 236.533 356.802 238.971 358.59 241.056C360.379 243.141 362.587 244.825 365.07 246C361.931 245.345 358.694 245.315 355.543 245.912C352.393 246.509 349.391 247.721 346.71 249.48C341.71 252.75 338.35 257.67 337.64 262.88C337.131 267.674 338.456 272.484 341.35 276.34C344.47 280.704 348.957 283.903 354.1 285.43L349.03 285.56L343.96 285.7C340.637 285.789 337.364 286.533 334.328 287.888C331.292 289.244 328.554 291.185 326.269 293.599C323.984 296.014 322.198 298.856 321.012 301.962C319.827 305.068 319.265 308.377 319.36 311.7V311.7C319.538 318.404 322.372 324.764 327.238 329.379C332.105 333.994 338.605 336.487 345.31 336.31L366.16 335.75L387.01 335.2L388.75 414.48L390.48 493.76H428.64L426.8 413.98L425 334.15L445.85 333.59L466.7 333.04C470.024 332.952 473.298 332.209 476.335 330.854C479.371 329.499 482.111 327.559 484.397 325.144C486.683 322.729 488.47 319.887 489.656 316.78C490.842 313.674 491.404 310.364 491.31 307.04V307.04C491.222 303.716 490.479 300.442 489.124 297.405C487.769 294.368 485.829 291.629 483.414 289.343C480.999 287.057 478.157 285.27 475.05 284.083C471.944 282.897 468.634 282.335 465.31 282.43V282.48Z" fill="#666538"/>
<path d="M424.951 334.15H414.791H404.631L415.051 348.16L425.481 362.17L425.211 348.16L424.951 334.15Z" fill="#353519"/>
<path d="M373.801 247.26H365.061C364.895 247.26 364.732 247.228 364.579 247.164C364.426 247.101 364.287 247.007 364.171 246.89C363.997 246.714 363.879 246.492 363.832 246.249C363.784 246.007 363.81 245.756 363.905 245.528C364 245.3 364.161 245.106 364.367 244.969C364.572 244.832 364.814 244.759 365.061 244.76H373.801C374.049 244.757 374.293 244.828 374.5 244.964C374.707 245.101 374.869 245.297 374.964 245.526C375.058 245.756 375.082 246.008 375.032 246.252C374.981 246.495 374.859 246.717 374.681 246.89C374.567 247.008 374.43 247.102 374.279 247.165C374.128 247.229 373.965 247.261 373.801 247.26V247.26Z" fill="#2B3D0A"/>
<path d="M456.36 284.27H429.1C428.768 284.27 428.45 284.138 428.216 283.904C427.981 283.669 427.85 283.352 427.85 283.02C427.852 282.689 427.985 282.373 428.219 282.139C428.452 281.905 428.769 281.773 429.1 281.77H456.36C456.523 281.77 456.686 281.803 456.837 281.867C456.988 281.93 457.125 282.023 457.24 282.14C457.357 282.254 457.451 282.391 457.514 282.542C457.578 282.694 457.61 282.856 457.61 283.02C457.61 283.185 457.577 283.349 457.514 283.502C457.45 283.655 457.357 283.794 457.24 283.91C457.004 284.139 456.689 284.268 456.36 284.27V284.27Z" fill="#2B3D0A"/>
<path d="M416.561 217.15C416.436 217.149 416.311 217.132 416.191 217.1C416.066 217.058 415.948 216.997 415.841 216.92C415.706 216.826 415.591 216.706 415.504 216.566C415.416 216.427 415.357 216.272 415.331 216.11C415.301 215.949 415.304 215.783 415.34 215.623C415.376 215.463 415.445 215.312 415.541 215.18L416.941 213.18L418.331 211.18C418.522 210.91 418.813 210.726 419.139 210.67C419.465 210.614 419.8 210.689 420.071 210.88C420.341 211.071 420.524 211.362 420.58 211.688C420.637 212.014 420.561 212.349 420.371 212.62L418.981 214.62L417.581 216.62C417.467 216.789 417.312 216.926 417.131 217.02C416.954 217.108 416.758 217.152 416.561 217.15V217.15Z" fill="#2B3D0A"/>
<path d="M367 348.08C367.32 347.98 367.63 347.86 368 347.74C368.37 347.62 368.64 347.47 369 347.32C370.664 346.536 372.212 345.527 373.6 344.32C375.816 342.449 377.303 339.857 377.8 337C378.226 334.137 377.657 331.215 376.19 328.72C374.748 326.192 372.591 324.146 369.99 322.84C367.66 321.691 365.056 321.213 362.47 321.46C359.846 321.7 357.33 322.621 355.17 324.13C356.588 322.795 357.79 321.246 358.73 319.54C359.96 317.321 360.584 314.817 360.54 312.28C360.442 308.815 359.177 305.485 356.95 302.83C354.623 300.028 351.475 298.028 347.95 297.11C346.198 296.799 344.411 296.732 342.64 296.91C339.436 297.161 336.401 298.446 333.99 300.57C331.213 303.192 329.521 306.76 329.25 310.57C328.885 314.782 329.911 318.997 332.17 322.57C328.954 320.88 325.26 320.326 321.69 321C318.671 321.6 315.931 323.169 313.886 325.469C311.841 327.769 310.603 330.674 310.359 333.742C310.116 336.81 310.881 339.873 312.538 342.466C314.195 345.06 316.654 347.041 319.54 348.11H318.13C316.28 348.103 314.447 348.461 312.736 349.163C311.024 349.866 309.468 350.898 308.156 352.202C306.844 353.506 305.801 355.055 305.088 356.762C304.375 358.469 304.005 360.3 304 362.15V362.15C304 364 304.365 365.831 305.073 367.54C305.781 369.249 306.819 370.802 308.127 372.109C309.436 373.417 310.989 374.454 312.699 375.161C314.408 375.868 316.24 376.231 318.09 376.23H332.2V437.1H352.52V376.23H366.63C368.479 376.231 370.311 375.868 372.02 375.161C373.729 374.454 375.281 373.417 376.589 372.109C377.897 370.801 378.934 369.248 379.641 367.54C380.348 365.831 380.711 363.999 380.71 362.15V362.15C380.711 358.48 379.278 354.955 376.717 352.326C374.156 349.697 370.669 348.174 367 348.08Z" fill="#E9CF81"/>
<path d="M326.619 349.32H318.129C317.964 349.32 317.8 349.288 317.647 349.224C317.494 349.161 317.356 349.067 317.239 348.95C317.065 348.774 316.947 348.551 316.9 348.309C316.853 348.067 316.878 347.816 316.974 347.588C317.069 347.36 317.229 347.165 317.435 347.029C317.641 346.892 317.882 346.819 318.129 346.82H326.619C326.866 346.819 327.108 346.892 327.313 347.029C327.519 347.165 327.68 347.36 327.775 347.588C327.87 347.816 327.896 348.067 327.848 348.309C327.801 348.551 327.683 348.774 327.509 348.95C327.393 349.067 327.254 349.161 327.101 349.224C326.948 349.288 326.785 349.32 326.619 349.32V349.32Z" fill="#666538"/>
<path d="M352.509 327.52C352.321 327.521 352.136 327.477 351.969 327.39C351.794 327.306 351.64 327.183 351.519 327.03C351.418 326.901 351.344 326.752 351.301 326.594C351.258 326.435 351.247 326.27 351.268 326.107C351.29 325.944 351.343 325.787 351.426 325.645C351.508 325.503 351.618 325.379 351.749 325.28L353.539 323.9L355.329 322.52C355.458 322.42 355.606 322.346 355.764 322.303C355.922 322.26 356.087 322.249 356.249 322.27C356.577 322.315 356.874 322.487 357.076 322.749C357.278 323.011 357.369 323.342 357.329 323.67C357.31 323.834 357.257 323.992 357.175 324.135C357.092 324.277 356.981 324.402 356.849 324.5L355.059 325.88L353.279 327.26C353.168 327.345 353.043 327.409 352.909 327.45C352.781 327.498 352.646 327.522 352.509 327.52Z" fill="#666538"/>
<path d="M626.199 350.77C626.782 361.249 625.91 371.759 623.609 382C621.327 392.295 617.292 402.122 611.679 411.05C607.9 416.954 603.357 422.334 598.169 427.05C592.99 431.784 587.148 435.739 580.829 438.79C574.137 442.08 566.744 443.69 559.289 443.48C552.229 443.29 545.129 441.63 537.479 439.26C532.394 437.619 527.033 437.01 521.709 437.47C516.648 437.929 511.761 439.551 507.429 442.21C503.475 444.729 500.18 448.158 497.819 452.21C495.439 456.251 493.604 460.588 492.359 465.11C491.939 466.58 490.359 474.06 488.899 481.17C487.439 488.28 486.139 495.04 486.299 495.07L474.709 493L463.109 490.87C463.109 490.87 463.659 486.72 464.689 480.97C465.822 474.394 467.311 467.884 469.149 461.47C470.742 455.977 472.786 450.626 475.259 445.47C478.543 438.714 482.784 432.466 487.849 426.92C491.123 423.319 494.875 420.183 498.999 417.6C503.097 414.997 507.618 413.132 512.359 412.09C517.757 411.104 523.294 411.165 528.669 412.27C534.069 413.27 539.439 414.75 544.669 415.93C550.066 417.175 555.632 417.513 561.139 416.93C566.652 416.358 571.978 414.612 576.759 411.81C591.689 402.91 597.759 387.51 599.679 370.69C601.599 353.87 599.459 335.69 597.979 321.1C597.249 313.95 596.399 306.1 595.379 297.71C594.359 289.32 593.209 280.25 591.859 270.71L604.459 268.62L617.059 266.53C618.553 275.63 619.913 285 621.139 294.64C622.366 304.28 623.426 314.176 624.319 324.33C624.719 328.836 625.073 333.296 625.379 337.71C625.686 342.123 625.959 346.476 626.199 350.77Z" fill="#BAB653"/>
<path d="M600.38 362.76C600.26 358.76 600.137 354.793 600.01 350.86C599.884 346.927 599.757 342.96 599.63 338.96C599.63 338.55 599.63 338.22 599.56 337.96C599.49 337.7 599.56 337.42 599.56 337.18C599.56 336.6 599.47 335.81 599.37 334.69C599.27 333.57 599.15 332.12 598.96 330.2C598.16 322.2 597.4 315.14 596.84 310.14C596.28 305.14 595.91 302.14 595.91 302.14C595.39 297.87 594.8 293.08 594.14 287.83C593.48 282.58 592.73 276.83 591.91 270.7L604.51 268.61L617.11 266.52C618.29 273.19 619.3 279.37 620.16 284.96C621.02 290.55 621.74 295.56 622.34 299.9C622.46 300.81 623.63 309.49 624.71 320.83C625.982 333.082 626.596 345.393 626.55 357.71C626.55 360.42 626.37 363.28 626.11 366.33C625.85 369.38 625.45 372.6 624.85 376.05C624.46 378.27 624.05 380.3 623.63 382.1C623.21 383.9 622.82 385.48 622.46 386.79L611.46 374.79L600.38 362.76Z" fill="#666538"/>
<path d="M706.189 413C705.099 410.072 703.405 407.407 701.217 405.178C699.029 402.948 696.396 401.204 693.489 400.06C687.548 397.753 680.99 397.583 674.937 399.578C668.884 401.574 663.713 405.612 660.309 411C658.78 409.504 657.105 408.164 655.309 407C651.91 404.781 648.09 403.286 644.088 402.608C640.085 401.93 635.986 402.084 632.046 403.059C628.106 404.035 624.408 405.812 621.185 408.279C617.961 410.746 615.28 413.851 613.309 417.4C612.879 418.16 612.479 418.95 612.109 419.75C606.901 416.674 601.029 414.894 594.989 414.56C586.671 413.94 578.393 416.196 571.539 420.95C565.369 425.41 561.329 431.84 560.879 439.18C560.429 446.52 563.669 453.39 569.249 458.56C575.539 464.025 583.457 467.261 591.774 467.768C600.091 468.274 608.343 466.022 615.249 461.36C616.736 460.285 618.119 459.073 619.379 457.74C620.89 459.196 622.541 460.5 624.309 461.63C627.709 463.85 631.529 465.346 635.532 466.024C639.535 466.702 643.635 466.548 647.576 465.571C651.517 464.594 655.214 462.816 658.438 460.346C661.661 457.877 664.34 454.771 666.309 451.22C667.764 448.647 668.86 445.889 669.569 443.02C669.969 443.21 670.369 443.39 670.789 443.56C677.009 445.985 683.9 446.064 690.173 443.78C696.447 441.496 701.674 437.007 704.879 431.15C706.366 428.388 707.252 425.343 707.478 422.215C707.703 419.087 707.264 415.946 706.189 413V413Z" fill="#BAB653"/>
<path d="M581.999 439.87H579.609C579.445 439.87 579.283 439.837 579.132 439.773C578.981 439.71 578.844 439.617 578.729 439.5C578.5 439.264 578.371 438.949 578.369 438.62C578.375 438.29 578.508 437.975 578.739 437.74C578.854 437.623 578.991 437.531 579.142 437.467C579.293 437.404 579.455 437.371 579.619 437.37V437.37C585.899 437.42 592.209 437.29 598.509 437.01C604.809 436.73 611.079 436.27 617.319 435.67C632.293 434.204 647.161 431.813 661.839 428.51C676.611 425.185 691.165 420.957 705.419 415.85C705.58 415.789 705.752 415.762 705.924 415.771C706.096 415.779 706.265 415.823 706.419 415.9C706.568 415.969 706.702 416.068 706.812 416.19C706.922 416.312 707.006 416.455 707.059 416.61C707.127 416.768 707.162 416.938 707.162 417.11C707.162 417.282 707.127 417.452 707.059 417.61C706.911 417.905 706.657 418.133 706.349 418.25C691.998 423.384 677.348 427.638 662.479 430.99C647.698 434.314 632.727 436.722 617.649 438.2C611.769 438.77 605.839 439.2 599.899 439.49C593.959 439.78 587.899 439.87 581.999 439.87Z" fill="#666538"/>
<path d="M543.071 294.65C539.76 299.454 537.986 305.15 537.983 310.984C537.98 316.819 539.748 322.517 543.054 327.324C546.36 332.131 551.048 335.821 556.497 337.906C561.946 339.991 567.9 340.373 573.571 339H573.651C574.715 344.734 577.495 350.011 581.623 354.131C585.75 358.252 591.032 361.022 596.768 362.077C602.504 363.131 608.425 362.42 613.748 360.037C619.072 357.654 623.546 353.711 626.581 348.73C631.388 352.03 637.084 353.793 642.916 353.787C648.747 353.78 654.439 352.004 659.239 348.694C664.04 345.383 667.723 340.694 669.801 335.246C671.88 329.798 672.256 323.847 670.881 318.18V318.11C676.615 317.046 681.891 314.266 686.012 310.138C690.132 306.01 692.903 300.729 693.957 294.993C695.012 289.257 694.3 283.336 691.917 278.012C689.534 272.689 685.591 268.214 680.611 265.18V265.18C683.91 260.372 685.674 254.676 685.667 248.845C685.661 243.014 683.885 237.322 680.574 232.521C677.264 227.721 672.575 224.038 667.126 221.959C661.678 219.881 655.727 219.504 650.061 220.88H649.991C648.929 215.143 646.151 209.864 642.022 205.741C637.894 201.618 632.611 198.846 626.873 197.793C621.134 196.739 615.211 197.453 609.888 199.84C604.564 202.227 600.091 206.174 597.061 211.16V211.16C592.253 207.86 586.557 206.097 580.725 206.103C574.894 206.11 569.202 207.886 564.402 211.196C559.601 214.507 555.918 219.196 553.84 224.644C551.761 230.093 551.385 236.043 552.761 241.71V241.78C547.027 242.846 541.752 245.627 537.633 249.755C533.513 253.884 530.744 259.165 529.691 264.901C528.637 270.637 529.35 276.558 531.733 281.88C534.117 287.203 538.06 291.676 543.04 294.71L543.071 294.65Z" fill="#DEB8FC"/>
<path d="M580.1 280.64C579.929 287.923 582.289 295.04 586.777 300.779C591.264 306.517 597.603 310.522 604.713 312.111C611.822 313.7 619.263 312.775 625.767 309.494C632.271 306.212 637.436 300.777 640.382 294.114C643.328 287.452 643.873 279.974 641.924 272.954C639.975 265.935 635.652 259.808 629.692 255.619C623.733 251.429 616.505 249.435 609.24 249.977C601.975 250.519 595.123 253.563 589.85 258.59C586.852 261.441 584.447 264.857 582.774 268.642C581.101 272.426 580.192 276.503 580.1 280.64V280.64Z" fill="#F4ECE5"/>
<path d="M461.229 443.15C459.268 438.311 459.151 432.92 460.899 428C462.516 423.325 465.877 419.456 470.279 417.2C473.972 415.405 478.147 414.854 482.179 415.63C486.401 416.426 490.281 418.483 493.309 421.53C495.296 415.69 498.585 410.38 502.929 406C507.289 401.62 512.609 398.42 518.189 397.64C524.559 396.799 531.027 398.097 536.579 401.33C539.448 402.932 542.06 404.954 544.329 407.33C548.927 412.217 552.249 418.163 553.999 424.64C555.648 430.612 555.449 436.943 553.429 442.8C552.104 446.345 550.383 449.73 548.299 452.89C546.78 455.384 544.911 457.647 542.749 459.61C550.085 461.302 556.544 465.629 560.899 471.77C565.05 477.518 566.81 484.651 565.809 491.67C564.865 497.407 562.094 502.685 557.909 506.72C553.547 510.97 548.013 513.818 542.019 514.9L501.639 479L461.229 443.15Z" fill="#666538"/>
<path d="M592.24 667.42C592.233 727.665 571.337 786.045 533.112 832.611C494.887 879.177 441.699 911.048 382.61 922.794C323.52 934.54 262.186 925.434 209.058 897.028C155.93 868.621 114.295 822.672 91.2478 767.009C68.2004 711.347 65.1665 649.415 82.6629 591.766C100.159 534.117 137.104 484.318 187.201 450.855C237.298 417.392 297.448 402.335 357.403 408.249C417.357 414.163 473.406 440.683 516 483.29C540.209 507.447 559.406 536.15 572.49 567.749C585.574 599.347 592.285 633.22 592.24 667.42Z" fill="#353519"/>
<path d="M165.569 493.07C165.327 493.066 165.091 492.993 164.889 492.86C164.675 492.726 164.51 492.526 164.419 492.29L150.809 459.47L137.199 426.64C137.074 426.335 137.074 425.994 137.199 425.69C137.261 425.537 137.353 425.397 137.47 425.281C137.587 425.164 137.726 425.072 137.879 425.01C138.184 424.885 138.525 424.885 138.829 425.01C138.982 425.072 139.122 425.164 139.238 425.281C139.355 425.397 139.447 425.537 139.509 425.69L153.119 458.51L166.729 491.34C166.798 491.497 166.834 491.668 166.834 491.84C166.834 492.012 166.798 492.182 166.729 492.34C166.667 492.493 166.575 492.632 166.458 492.749C166.342 492.866 166.202 492.958 166.049 493.02C165.972 493.052 165.892 493.076 165.809 493.09L165.569 493.07Z" fill="#666538"/>
<path d="M148.76 382.68C153.054 386.972 155.727 392.619 156.324 398.661C156.92 404.703 155.404 410.764 152.032 415.813C148.66 420.862 143.642 424.585 137.833 426.349C132.024 428.112 125.783 427.807 120.173 425.484C114.564 423.162 109.933 418.966 107.071 413.613C104.208 408.259 103.291 402.078 104.474 396.124C105.658 390.169 108.87 384.809 113.563 380.957C118.256 377.106 124.139 375 130.21 375C133.655 374.996 137.067 375.672 140.251 376.99C143.434 378.308 146.326 380.241 148.76 382.68V382.68Z" fill="#F4ECE5"/>
<path d="M110.201 413C109.211 413.003 108.232 412.806 107.321 412.42C106.383 412.021 105.535 411.436 104.831 410.7C104.602 410.46 104.477 410.141 104.481 409.81C104.491 409.48 104.631 409.167 104.871 408.94C105.106 408.707 105.424 408.577 105.756 408.577C106.087 408.577 106.405 408.707 106.641 408.94C107.339 409.68 108.252 410.183 109.251 410.38C110.235 410.576 111.255 410.461 112.171 410.05C113.046 409.643 113.779 408.981 114.271 408.15C114.774 407.306 115.018 406.332 114.971 405.35C114.953 405.069 115.005 404.787 115.121 404.53C115.238 404.268 115.416 404.039 115.641 403.86C115.864 403.685 116.125 403.565 116.402 403.51C116.68 403.454 116.967 403.464 117.241 403.54C118.388 403.865 119.611 403.791 120.711 403.33C121.674 402.958 122.464 402.238 122.923 401.312C123.382 400.387 123.478 399.323 123.191 398.33C122.91 397.343 122.351 396.458 121.581 395.78C121.456 395.674 121.355 395.544 121.283 395.398C121.211 395.252 121.169 395.093 121.161 394.93C121.14 394.6 121.247 394.274 121.461 394.02C121.569 393.897 121.701 393.796 121.848 393.724C121.996 393.652 122.157 393.61 122.321 393.6C122.651 393.58 122.977 393.687 123.231 393.9C124.397 394.926 125.23 396.277 125.621 397.78C126.035 399.259 125.916 400.836 125.285 402.236C124.655 403.636 123.552 404.77 122.171 405.44C120.716 406.181 119.064 406.444 117.451 406.19C117.356 407.508 116.914 408.778 116.171 409.87C115.417 410.961 114.38 411.826 113.171 412.37C112.698 412.59 112.201 412.754 111.691 412.86C111.2 412.958 110.701 413.005 110.201 413V413Z" fill="#E2B2FF"/>
<path d="M447.67 471.82H447.56C447.396 471.808 447.237 471.764 447.091 471.69C446.945 471.617 446.816 471.514 446.71 471.39C446.499 471.135 446.395 470.809 446.42 470.48L452.17 400.27L457.93 330.06C457.943 329.896 457.989 329.737 458.064 329.591C458.14 329.445 458.244 329.315 458.37 329.21C458.494 329.102 458.638 329.021 458.795 328.971C458.951 328.921 459.116 328.904 459.28 328.92C459.608 328.948 459.912 329.102 460.13 329.35C460.342 329.607 460.445 329.937 460.42 330.27L454.67 400.47L448.909 470.68C448.883 470.993 448.741 471.286 448.51 471.5C448.281 471.71 447.98 471.825 447.67 471.82V471.82Z" fill="#666538"/>
<path d="M447.66 471.82H447.42C447.34 471.803 447.263 471.776 447.19 471.74C447.038 471.679 446.9 471.588 446.783 471.473C446.666 471.358 446.573 471.221 446.51 471.07C446.443 470.912 446.408 470.742 446.408 470.57C446.408 470.398 446.443 470.228 446.51 470.07L460.1 437.24L473.69 404.4C473.751 404.25 473.842 404.113 473.957 403.998C474.072 403.882 474.209 403.792 474.36 403.73C474.517 403.658 474.687 403.62 474.86 403.62C475.033 403.62 475.203 403.658 475.36 403.73C475.512 403.792 475.651 403.883 475.768 403.998C475.885 404.114 475.978 404.251 476.041 404.403C476.104 404.555 476.137 404.717 476.136 404.882C476.136 405.046 476.103 405.209 476.04 405.36L462.45 438.19L448.86 471.03C448.763 471.26 448.599 471.455 448.39 471.59C448.178 471.745 447.922 471.825 447.66 471.82V471.82Z" fill="#666538"/>
<path d="M512.999 381.51C513.022 387.582 510.939 393.474 507.104 398.181C503.27 402.889 497.921 406.121 491.97 407.327C486.02 408.532 479.835 407.637 474.47 404.793C469.106 401.95 464.893 397.334 462.551 391.732C460.208 386.13 459.881 379.89 461.625 374.074C463.368 368.258 467.075 363.227 472.113 359.837C477.151 356.448 483.208 354.911 489.252 355.488C495.296 356.065 500.953 358.719 505.259 363C507.705 365.424 509.648 368.307 510.976 371.483C512.304 374.66 512.992 378.067 512.999 381.51V381.51Z" fill="#DEB8FC"/>
<path d="M114 545.4C102.89 543.53 94.06 538.17 88.32 531.06C85.4817 527.623 83.3878 523.635 82.1708 519.347C80.9538 515.059 80.6402 510.565 81.25 506.15C82.3439 499.435 84.9984 493.071 89 487.57C93.32 481.63 99.32 476.57 106.87 474.32C112.909 472.511 119.381 472.793 125.24 475.12C128.319 476.305 131.189 477.977 133.74 480.07C136.184 475.048 140.24 470.988 145.26 468.54C149.86 466.35 154.78 465.92 158.76 467.54C161.789 468.872 164.215 471.281 165.57 474.3C167.105 477.714 167.616 481.501 167.04 485.2L140.49 515.28L114 545.4Z" fill="#666538"/>
<path d="M480.231 379.17C479.065 379.159 477.917 378.874 476.881 378.34C475.81 377.783 474.882 376.985 474.171 376.01C473.17 376.872 471.959 377.455 470.661 377.7C469.267 377.967 467.826 377.817 466.518 377.267C465.21 376.717 464.094 375.793 463.311 374.61C462.451 373.336 462.008 371.827 462.041 370.29C462.05 369.962 462.186 369.65 462.421 369.42C462.536 369.307 462.671 369.218 462.821 369.158C462.97 369.098 463.13 369.068 463.291 369.07V369.07C463.619 369.077 463.932 369.214 464.161 369.45C464.277 369.567 464.367 369.706 464.427 369.859C464.488 370.012 464.516 370.176 464.511 370.34C464.489 371.359 464.778 372.36 465.341 373.21C465.88 374.04 466.666 374.68 467.588 375.039C468.511 375.398 469.523 375.458 470.481 375.21C471.453 374.97 472.331 374.444 473.001 373.7C473.19 373.488 473.426 373.323 473.691 373.22C473.959 373.121 474.247 373.087 474.531 373.12C474.814 373.147 475.086 373.244 475.323 373.401C475.56 373.558 475.755 373.77 475.891 374.02C476.474 375.059 477.39 375.873 478.491 376.33C479.523 376.763 480.683 376.785 481.731 376.39C482.617 376.013 483.353 375.352 483.821 374.51C484.321 373.614 484.55 372.593 484.481 371.57C484.459 371.24 484.569 370.915 484.786 370.665C485.003 370.416 485.311 370.263 485.641 370.24C485.973 370.219 486.3 370.33 486.551 370.55C486.675 370.658 486.776 370.79 486.848 370.937C486.92 371.085 486.962 371.246 486.971 371.41C487.09 372.953 486.741 374.497 485.971 375.84C485.227 377.125 484.082 378.13 482.711 378.7C482.328 378.859 481.929 378.976 481.521 379.05C481.096 379.135 480.664 379.175 480.231 379.17V379.17Z" fill="#666538"/>
<path d="M505 289.63C505.02 282.08 502.944 274.672 499.005 268.231C495.065 261.791 489.415 256.57 482.684 253.149C475.953 249.729 468.404 248.243 460.879 248.858C453.354 249.472 446.147 252.163 440.06 256.63C437.087 259.037 434.432 261.813 432.16 264.89C428.313 270.04 425.737 276.026 424.64 282.36C422.69 293.88 426.27 303.69 430.48 310.74C433.067 315.129 436.296 319.106 440.06 322.54C441.691 323.736 443.409 324.809 445.2 325.75C449.304 327.904 453.744 329.344 458.33 330.01C460.265 330.284 462.216 330.421 464.17 330.42C474.992 330.42 485.371 326.124 493.027 318.475C500.683 310.827 504.989 300.452 505 289.63V289.63Z" fill="#DEB8FC"/>
<path d="M493.27 294.25C490.568 294.216 487.945 293.327 485.78 291.71C483.5 290.042 481.778 287.724 480.84 285.06C478.143 286.398 475.128 286.963 472.13 286.69C469.297 286.436 466.618 285.287 464.48 283.41C462.661 281.76 461.341 279.632 460.67 277.27C460.233 275.806 460.008 274.287 460 272.76C460.006 272.43 460.139 272.115 460.37 271.88C460.485 271.763 460.622 271.67 460.773 271.607C460.924 271.543 461.086 271.51 461.25 271.51V271.51C461.414 271.509 461.577 271.542 461.728 271.605C461.879 271.669 462.016 271.762 462.13 271.88C462.248 271.995 462.341 272.134 462.403 272.287C462.465 272.44 462.494 272.605 462.49 272.77C462.498 274.036 462.683 275.295 463.04 276.51C463.582 278.433 464.653 280.165 466.13 281.51C467.961 283.102 470.268 284.045 472.69 284.19C475.288 284.361 477.882 283.793 480.17 282.55C480.431 282.411 480.72 282.331 481.016 282.318C481.312 282.304 481.607 282.356 481.88 282.47C482.154 282.585 482.4 282.76 482.6 282.98C482.803 283.196 482.954 283.456 483.04 283.74C483.834 286.352 485.532 288.596 487.83 290.07C488.894 290.783 490.089 291.277 491.346 291.524C492.602 291.771 493.895 291.766 495.15 291.51C497.227 291.015 499.079 289.839 500.41 288.17C501.837 286.413 502.714 284.273 502.93 282.02C502.944 281.857 502.991 281.698 503.069 281.554C503.146 281.409 503.252 281.282 503.38 281.18C503.572 281.035 503.801 280.948 504.041 280.931C504.281 280.913 504.521 280.965 504.732 281.08C504.943 281.195 505.116 281.368 505.231 281.579C505.346 281.79 505.398 282.03 505.38 282.27C505.104 285.042 504.011 287.669 502.24 289.82C500.559 291.881 498.247 293.332 495.66 293.95C495.25 294.04 494.85 294.1 494.44 294.15C494.03 294.2 493.68 294.25 493.27 294.25Z" fill="#666538"/>
<path d="M150 713.65C149.745 711 149.07 708.408 148 705.97C147 703.49 145.76 701.07 144.71 698.61C142.415 693.347 141.038 687.729 140.64 682C140.219 676.353 141.184 670.689 143.45 665.5C146.16 659.907 150.464 655.241 155.82 652.09C161.15 648.98 167.11 647.9 171.98 650.83C177.36 654.07 183.74 654.62 189.86 653.24C196.081 651.795 201.758 648.599 206.22 644.03C210.509 639.477 213.887 634.144 216.17 628.32C218.498 622.437 220.276 616.351 221.48 610.14C222.025 607.067 222.924 604.067 224.16 601.2C225.47 598.45 227.34 596.2 230.16 595.14C231.504 594.681 232.922 594.477 234.34 594.54C235.778 594.6 237.211 594.75 238.63 594.99L246.24 596.12L253.84 597.26C256.307 597.64 258.831 597.354 261.15 596.431C263.469 595.508 265.499 593.982 267.03 592.01C268.587 590.067 269.591 587.741 269.937 585.275C270.284 582.81 269.96 580.297 269 578C266.779 572.829 263.989 567.922 260.68 563.37C257.358 558.765 253.779 554.352 249.96 550.15C243.67 543.15 236.96 535.94 231.68 528.15C226.4 520.36 222.41 511.96 221.57 502.58C221.08 497.02 221.71 491.27 221.87 485.65C222.03 480.03 221.73 474.52 219.35 469.47C217.788 466.375 215.746 463.547 213.3 461.09C210.91 458.55 208.3 456.16 205.95 453.59C204.538 452.065 203.264 450.419 202.14 448.67C201.012 446.943 200.111 445.078 199.46 443.12C145.934 474.731 105.473 524.436 85.3797 583.262C65.2868 642.088 66.8866 706.16 89.8902 763.91C97.459 760.71 104.841 757.084 112 753.05C119.171 749.02 126.106 744.583 132.77 739.76C137.377 736.584 141.497 732.754 145 728.39C148.31 724 150.4 719.09 150 713.65Z" fill="#BAB653"/>
<path d="M356 528.24C358.89 528.91 361.81 529.49 364.74 529.97C367.67 530.45 370.62 530.85 373.58 531.15C372.62 540.323 371.664 549.493 370.71 558.66C369.757 567.827 368.804 577 367.85 586.18C367.76 586.957 367.76 587.743 367.85 588.52C367.938 589.293 368.133 590.051 368.43 590.77C370 594.51 373.37 595.29 377.14 595.59C380.91 595.89 385.08 595.72 388.24 597.54C390.32 607.54 392.9 617.43 395.44 627.34C397.98 637.25 400.5 647.16 402.44 657.17C402.691 658.467 403.161 659.711 403.83 660.85C404.501 661.982 405.396 662.965 406.46 663.74C409.77 666.14 413.1 665.6 416.11 663.74C419.12 661.88 421.78 658.6 423.76 655.59C427.52 649.85 431.284 644.107 435.05 638.36L446.35 621.14C447.35 619.65 448.35 618.14 449.42 616.76C450.496 615.356 451.762 614.107 453.18 613.05C456.34 610.74 460.18 609.83 464.07 608.96C467.96 608.09 471.84 607.23 475.07 605.05C478.195 602.847 480.582 599.752 481.92 596.17C483.333 592.505 484.212 588.655 484.53 584.74C484.91 580.9 485.06 576.97 485.53 573.12C485.882 569.277 486.869 565.52 488.45 562C489.702 559.512 491.261 557.19 493.09 555.09C494.88 552.95 496.85 550.93 498.76 548.89C508.545 538.397 516.995 526.735 523.92 514.17C525.19 511.87 526.42 509.52 527.66 507.17C528.9 504.82 530.14 502.47 531.43 500.17C511.488 476.399 487.478 456.364 460.52 441C432.976 425.298 402.782 414.791 371.44 410C363.854 421.033 356.774 432.4 350.2 444.1C343.627 455.8 337.627 467.77 332.2 480.01L332.12 480.19L332.04 480.36C329.973 485.041 328.966 490.12 329.09 495.235C329.215 500.351 330.469 505.375 332.762 509.949C335.056 514.523 338.332 518.534 342.356 521.694C346.38 524.855 351.053 527.086 356.04 528.23L356 528.24Z" fill="#BAB653"/>
<path d="M506.31 634.49C505.724 636.061 505.386 637.714 505.31 639.39C505.211 641.077 505.248 642.769 505.42 644.45C505.644 647.424 506.294 650.35 507.35 653.14C508.275 655.87 510.043 658.236 512.399 659.896C514.755 661.557 517.577 662.426 520.46 662.38C523.363 662.433 526.257 662.055 529.05 661.26C531.334 660.687 533.535 659.823 535.6 658.69C537.616 657.584 539.306 655.966 540.5 654C541.227 652.734 541.725 651.349 541.97 649.91C542.219 648.461 542.31 646.989 542.24 645.52C542.188 643.728 541.923 641.949 541.45 640.22C540.986 638.497 540.243 636.862 539.25 635.38C536.04 630.66 529.1 627.2 522.31 626.54C515.52 625.88 508.89 628 506.31 634.49Z" fill="#BAB653"/>
<path d="M68.9402 147C68.9113 147.995 68.6514 148.968 68.181 149.845C67.7107 150.721 67.0428 151.476 66.2302 152.05C64.3203 153.409 62.0344 154.14 59.6902 154.14C57.3461 154.14 55.0601 153.409 53.1502 152.05C52.3168 151.499 51.6331 150.749 51.16 149.869C50.687 148.988 50.4395 148.005 50.4395 147.005C50.4395 146.006 50.687 145.022 51.16 144.142C51.6331 143.261 52.3168 142.512 53.1502 141.96C55.0573 140.594 57.3443 139.859 59.6902 139.859C62.0361 139.859 64.3232 140.594 66.2302 141.96C67.0426 142.532 67.7105 143.285 68.1809 144.16C68.6513 145.035 68.9113 146.007 68.9402 147V147Z" fill="#AD4D4D"/>
<path d="M82.7098 156.93C82.6929 157.539 82.534 158.135 82.2458 158.672C81.9576 159.208 81.5481 159.67 81.0498 160.02C79.8805 160.848 78.4828 161.293 77.0499 161.293C75.6169 161.293 74.2192 160.848 73.0499 160.02C72.5403 159.683 72.1223 159.224 71.8331 158.686C71.5439 158.148 71.3926 157.546 71.3926 156.935C71.3926 156.324 71.5439 155.722 71.8331 155.184C72.1223 154.646 72.5403 154.187 73.0499 153.85C74.2163 153.015 75.6151 152.565 77.0499 152.565C78.4846 152.565 79.8834 153.015 81.0498 153.85C81.5478 154.198 81.9574 154.658 82.2457 155.193C82.5339 155.728 82.6929 156.323 82.7098 156.93V156.93Z" fill="#AD4D4D"/>
<path d="M170.381 166.35C170.313 166.993 170.098 167.611 169.751 168.156C169.403 168.701 168.935 169.158 168.381 169.49C167.089 170.288 165.571 170.64 164.061 170.49C162.538 170.406 161.084 169.827 159.921 168.84C159.406 168.445 158.997 167.929 158.731 167.337C158.465 166.745 158.35 166.096 158.397 165.449C158.443 164.801 158.65 164.176 158.998 163.628C159.346 163.08 159.825 162.627 160.391 162.31C161.68 161.503 163.195 161.135 164.711 161.26C166.235 161.347 167.689 161.93 168.851 162.92C169.357 163.332 169.759 163.857 170.025 164.453C170.291 165.049 170.412 165.699 170.381 166.35V166.35Z" fill="#AD4D4D"/>
<path d="M156.12 174.91C156.075 175.341 155.93 175.756 155.698 176.122C155.466 176.488 155.152 176.796 154.78 177.02C153.907 177.554 152.888 177.802 151.867 177.73C150.845 177.658 149.871 177.271 149.08 176.62C148.733 176.355 148.457 176.007 148.277 175.608C148.097 175.21 148.019 174.773 148.049 174.337C148.08 173.9 148.219 173.479 148.453 173.109C148.687 172.74 149.009 172.434 149.391 172.22C150.264 171.687 151.283 171.438 152.304 171.51C153.326 171.582 154.3 171.97 155.09 172.62C155.427 172.897 155.695 173.247 155.873 173.645C156.052 174.042 156.137 174.475 156.12 174.91V174.91Z" fill="#AD4D4D"/>
<path d="M506.13 162.3C505.855 163.256 505.361 164.135 504.688 164.867C504.014 165.6 503.18 166.165 502.25 166.52C500.062 167.366 497.665 167.508 495.392 166.927C493.12 166.346 491.085 165.072 489.57 163.28C488.901 162.538 488.425 161.642 488.186 160.672C487.947 159.702 487.951 158.688 488.199 157.72C488.446 156.752 488.929 155.86 489.605 155.124C490.28 154.388 491.127 153.83 492.07 153.5C494.258 152.652 496.656 152.508 498.929 153.089C501.203 153.67 503.238 154.946 504.75 156.74C505.395 157.497 505.855 158.393 506.095 159.358C506.334 160.323 506.346 161.33 506.13 162.3V162.3Z" fill="#AD4D4D"/>
<path d="M510.7 177.34C510.524 177.95 510.208 178.511 509.778 178.978C509.347 179.445 508.814 179.805 508.22 180.03C506.823 180.569 505.293 180.66 503.842 180.291C502.39 179.922 501.09 179.111 500.12 177.97C499.709 177.484 499.416 176.91 499.263 176.293C499.111 175.675 499.103 175.031 499.24 174.41C499.415 173.799 499.73 173.238 500.161 172.77C500.591 172.303 501.125 171.944 501.72 171.72C503.111 171.151 504.651 171.059 506.1 171.46C507.559 171.808 508.865 172.623 509.82 173.78C510.231 174.265 510.524 174.839 510.677 175.457C510.83 176.074 510.837 176.719 510.7 177.34Z" fill="#AD4D4D"/>
<path d="M427.339 491.33L421.689 509.45L416.039 527.56H427.339H438.629L432.979 509.45L427.339 491.33Z" fill="#666538"/>
<path d="M447.56 517.6L441.909 535.71L436.27 553.83H447.56H458.849L453.21 535.71L447.56 517.6Z" fill="#666538"/>
<path d="M467.989 491.86L462.349 509.98L456.699 528.09H467.989H479.289L473.639 509.98L467.989 491.86Z" fill="#666538"/>
<path d="M163.96 502.37L159.27 517.4L154.58 532.44H163.96H173.33L168.65 517.4L163.96 502.37Z" fill="#666538"/>
<path d="M182.091 481.66L177.401 496.7L172.721 511.74H182.091H191.461L186.781 496.7L182.091 481.66Z" fill="#666538"/>
<path d="M204.23 591.63C203.584 579.312 198.236 567.711 189.288 559.221C180.34 550.731 168.475 545.998 156.14 546H34.6498C22.5013 546.007 10.8042 550.605 1.90261 558.872C-6.99893 567.139 -12.4472 578.465 -13.3502 590.58C-19.6729 590.58 -25.9337 591.826 -31.7749 594.245C-37.6162 596.665 -42.9236 600.212 -47.3939 604.683C-51.8642 609.155 -55.41 614.463 -57.8287 620.305C-60.2473 626.146 -61.4915 632.407 -61.4902 638.73V638.73C-61.4902 645.053 -60.2447 651.313 -57.8248 657.155C-55.405 662.996 -51.8581 668.303 -47.3868 672.774C-42.9155 677.244 -37.6075 680.79 -31.7657 683.208C-25.9239 685.627 -19.6629 686.871 -13.3402 686.87H194.1C200.422 686.871 206.683 685.627 212.525 683.208C218.367 680.79 223.675 677.244 228.146 672.774C232.618 668.303 236.164 662.996 238.584 657.155C241.004 651.313 242.25 645.053 242.25 638.73V638.73C242.252 627.721 238.482 617.043 231.568 608.476C224.653 599.909 215.012 593.971 204.25 591.65L204.23 591.63Z" fill="#F4ECE5"/>
</svg>
