<svg width="25" height="25" viewBox="0 0 25 25" fill="none" xmlns="http://www.w3.org/2000/svg">
<path d="M11.8047 23.5416C9.09641 23.5416 6.31863 22.4999 4.51308 20.4166C3.88808 20.9027 3.12419 21.3194 2.3603 21.6666C2.01308 21.8055 1.59641 21.6666 1.45752 21.3194C1.31863 20.9721 1.45752 20.5555 1.80474 20.4166C2.49919 20.1388 3.12419 19.7916 3.67974 19.3749C2.84641 18.0555 2.3603 16.3888 2.3603 14.4443C2.3603 10.7638 4.09641 8.81935 5.69363 8.81935C6.7353 8.81935 7.91585 9.65268 7.91585 12.0832C7.91585 15.3471 7.15196 17.7777 5.4853 19.5832C7.01308 21.3888 9.37419 22.2916 11.7353 22.2916C12.152 22.2916 12.4297 22.5693 12.4297 22.986C12.4297 23.4027 12.2214 23.5416 11.8047 23.5416ZM5.69363 10.1388C4.99919 10.1388 3.74919 11.3888 3.74919 14.3749C3.74919 15.9027 4.09641 17.2221 4.72141 18.2638C5.97141 16.8055 6.59641 14.7221 6.59641 11.9444C6.59641 10.9027 6.24919 10.1388 5.69363 10.1388V10.1388ZM23.1242 3.33324C22.5686 2.36102 21.6659 1.66657 20.6242 1.38879C20.277 1.31935 19.8603 1.52768 19.7909 1.87491L19.1659 4.23602L18.0547 2.29157C17.9853 2.15268 17.777 2.01379 17.5686 1.94435C17.3603 1.87491 17.152 1.94435 17.0131 2.08324C16.2492 2.63879 15.7631 3.40268 15.4853 4.30546L12.5686 14.9999C12.2909 16.0416 12.4297 17.2221 12.9853 18.1944C13.402 18.9582 14.0964 19.5138 14.8603 19.9305L14.0964 22.7082C14.027 23.0555 14.2353 23.4721 14.5825 23.5416H14.7909C15.0686 23.5416 15.3464 23.3332 15.4853 23.0555L16.2492 20.3471H16.6659C17.3603 20.3471 18.0547 20.1388 18.7492 19.7916C19.7214 19.236 20.4159 18.3332 20.6936 17.2916L21.8047 13.2638L22.9159 9.23602C22.9853 8.95824 22.9159 8.68046 22.6381 8.47213C22.4297 8.33324 22.0825 8.26379 21.8742 8.40268L19.0964 9.99991L19.5131 8.54157L23.4714 6.31935C23.6797 6.18046 23.8186 5.97213 23.8186 5.76379C23.7492 4.93046 23.5409 4.09713 23.1242 3.33324V3.33324ZM16.8047 4.72213C16.8742 4.37491 17.0131 4.09713 17.2214 3.81935L18.5409 6.18046L17.5686 9.72213L16.1103 7.15268L16.8047 4.72213V4.72213ZM14.1659 17.4999C13.8186 16.8749 13.6797 16.111 13.8881 15.4166L15.6242 9.02768L17.0825 11.5971L16.1103 15.2777L15.2075 18.5416C14.7909 18.3332 14.4436 17.986 14.1659 17.4999V17.4999ZM19.2353 16.8749C19.027 17.5693 18.6103 18.1944 17.9159 18.5416C17.4992 18.8194 17.0131 18.8888 16.527 18.8888L17.3603 15.9721L19.9297 14.5138L19.2353 16.8749V16.8749ZM21.0409 10.486L20.4853 12.6388L17.9159 14.0971L18.4714 11.9444L21.0409 10.486V10.486ZM19.8603 6.66657L19.9297 6.38879C19.9992 6.31935 19.9992 6.18046 19.9992 6.11102L20.8325 2.98602C21.2492 3.19435 21.5964 3.61102 21.8742 4.02768C22.0825 4.44435 22.2214 4.86102 22.2214 5.27768L19.8603 6.66657V6.66657Z" fill="#353519"/>
</svg>
