<svg width="626" height="906" viewBox="0 0 626 906" fill="none" xmlns="http://www.w3.org/2000/svg">
<path d="M203.65 467.6C203.448 467.604 203.248 467.556 203.07 467.46C202.883 467.366 202.725 467.224 202.61 467.05C191.629 450.386 183.108 432.226 177.31 413.13C168.11 383.298 165.995 351.731 171.136 320.938C176.276 290.146 188.529 260.977 206.92 235.75C218.491 219.71 232.297 205.409 247.92 193.28C248.185 193.078 248.519 192.988 248.85 193.03C249.012 193.051 249.169 193.104 249.311 193.186C249.453 193.268 249.577 193.377 249.677 193.507C249.776 193.637 249.849 193.786 249.891 193.944C249.932 194.103 249.942 194.268 249.92 194.43C249.9 194.594 249.848 194.752 249.765 194.895C249.683 195.037 249.572 195.162 249.44 195.26C234 207.257 220.355 221.4 208.92 237.26C190.749 262.174 178.644 290.984 173.566 321.399C168.488 351.814 170.578 382.995 179.67 412.46C185.404 431.318 193.824 449.252 204.67 465.71C204.853 465.987 204.922 466.324 204.86 466.65C204.829 466.811 204.766 466.963 204.675 467.099C204.584 467.235 204.466 467.351 204.33 467.44C204.227 467.514 204.112 467.569 203.99 467.6C203.877 467.617 203.762 467.617 203.65 467.6V467.6Z" fill="#666538"/>
<path d="M226.23 945.09C296.85 944.517 367.47 944.234 438.09 944.24C508.71 944.247 579.33 944.53 649.951 945.09C688.364 945.39 726.767 945.777 765.16 946.25C803.554 946.724 841.954 947.28 880.36 947.92C878.328 898.128 873.685 848.476 866.451 799.17C857.509 738.277 844.551 678.043 827.66 618.86C817.45 583.14 786.53 474.86 742.87 374.67C699.21 274.48 642.87 182.45 581.74 179.23C547.61 177.44 501.13 202.78 441.98 311.64C382.83 420.5 311 612.86 226.23 945.09Z" fill="#353519"/>
<path d="M209.87 523.22H209.75H209.63C206.69 534.87 202.63 546.22 198.49 557.5C194.35 568.78 190.16 580 187 591.62C183.629 603.273 181.806 615.32 181.58 627.45C181.51 639.45 183.53 651.34 188.65 662.22C191.114 667.443 194.247 672.324 197.97 676.74C201.686 681.166 205.935 685.115 210.62 688.5C214.88 691.57 220.2 693.72 225.2 696.24C230.2 698.76 234.85 701.66 237.79 706.24C247 720.65 241.54 733.48 232.27 745.39C223 757.3 209.92 768.29 203.88 779.04C199.33 787.14 196.88 796.43 195.88 805.94C194.96 815.331 194.96 824.789 195.88 834.18C196.618 842.372 197.843 850.513 199.55 858.56C201.24 866.62 203.34 874.56 205.7 882.45C206.14 883.93 207.26 887.66 209.01 892.93C210.76 898.2 213.17 905 216.19 912.6C219.21 920.2 222.67 928.18 225.44 934.43C228.21 940.68 230.25 945.08 230.25 945.08H244.13H258.01C258.01 945.08 250.01 930.21 241.36 909.08C232.71 887.95 223.36 860.5 220.54 835.4C219.476 825.807 220.402 816.098 223.26 806.88C226.019 797.866 230.673 789.547 236.91 782.48C245.36 772.98 254.25 762.36 260.45 750.74C266.65 739.12 270.15 726.47 267.84 712.93C265.447 699.248 257.939 686.989 246.84 678.64C242.33 675.28 237.29 672.64 232.4 669.78C227.51 666.92 222.79 663.92 218.91 659.85C215.638 656.396 213.013 652.382 211.16 648C209.325 643.638 208.064 639.056 207.41 634.37C206.226 625.381 206.537 616.257 208.33 607.37C210.131 598.389 212.659 589.57 215.89 581C219 572.43 222.45 563.95 225.53 555.37C228.722 546.848 231.181 538.07 232.88 529.13L221.38 526.13L209.87 523.22Z" fill="#BAB653"/>
<path d="M204.15 540.94L211.1 558.05L218.1 575.15C218.1 575.15 220.81 568.22 223.59 560.78C226.37 553.34 229.24 545.38 229.59 543.32L224.28 533.55L218.97 523.77L211.61 532.36L204.15 540.94Z" fill="#353519"/>
<path d="M185.93 469C181.043 468.751 176.186 469.903 171.93 472.32C167.776 474.663 164.431 478.213 162.34 482.5C160.17 487.079 159.417 492.201 160.18 497.21C160.872 502.386 163.569 507.083 167.69 510.29C170.746 512.589 174.389 513.976 178.2 514.29C182.209 514.603 186.233 513.916 189.91 512.29C184.798 514.537 180.669 518.553 178.28 523.6C175.908 528.535 175.438 534.171 176.96 539.43C178.537 544.68 181.966 549.178 186.61 552.09C191.106 555.009 196.538 556.123 201.82 555.21C206.622 554.241 210.934 551.623 214.01 547.81C215.676 545.848 217.05 543.655 218.09 541.3C218.943 544.099 220.196 546.76 221.81 549.2C224.778 553.888 229.222 557.455 234.44 559.34C239.586 561.08 245.144 561.181 250.35 559.63C255.621 558.166 260.183 554.84 263.19 550.27C265.265 546.944 266.425 543.129 266.55 539.21C266.641 536.86 266.43 534.507 265.92 532.21C269.683 536.7 274.539 540.144 280.02 542.21C285.057 544.129 290.569 544.419 295.78 543.04C298.282 542.35 300.673 541.306 302.88 539.94C306.754 537.609 309.733 534.046 311.34 529.82C312.957 525.294 312.957 520.347 311.34 515.82C310.559 513.458 309.434 511.224 308 509.19C313.632 510.972 319.72 510.634 325.12 508.24C330.247 506.019 334.325 501.912 336.51 496.77C338.46 491.864 338.481 486.402 336.57 481.48C334.835 476.792 331.757 472.719 327.72 469.77C324.913 467.782 321.699 466.443 318.31 465.85C316.173 465.463 313.996 465.346 311.83 465.5C313.929 463.985 315.824 462.208 317.47 460.21C320.035 457.173 321.735 453.501 322.39 449.58C323.39 442.8 320.91 435.73 316.39 430.22C311.87 424.71 305.21 420.79 298.03 420.31C292.648 420.043 287.326 421.539 282.87 424.57C280.333 426.221 278.035 428.213 276.04 430.49C276.268 427.482 276.11 424.458 275.57 421.49C274.806 416.97 272.797 412.753 269.77 409.31C264.12 403.1 255.05 400.31 246.14 400.93C237.23 401.55 228.48 405.39 223.48 412.44C220.526 416.725 218.92 421.796 218.87 427C218.78 430.23 219.116 433.458 219.87 436.6C216.719 432.434 212.534 429.163 207.73 427.11C203.175 425.145 198.136 424.585 193.26 425.5C186.669 426.933 180.843 430.76 176.91 436.24C173.02 441.58 171.15 448.12 172.65 454.24C173.749 458.375 176.117 462.061 179.42 464.78C181.395 466.467 183.584 467.886 185.93 469Z" fill="#DEB8FC"/>
<path d="M230.47 467.73C226.575 466.501 222.455 466.159 218.41 466.73C216.382 467.007 214.438 467.719 212.712 468.819C210.986 469.919 209.518 471.379 208.41 473.1C205.06 478.32 205.93 484.1 209.05 488.44C210.636 490.686 212.768 492.49 215.247 493.68C217.725 494.87 220.466 495.407 223.21 495.24C222.92 495.24 222.46 495.9 222.05 496.59C221.64 497.28 221.25 498 221.13 498.21C220.121 499.863 219.471 501.711 219.225 503.632C218.978 505.554 219.14 507.506 219.7 509.36C220.287 511.205 221.276 512.896 222.595 514.313C223.914 515.729 225.532 516.835 227.33 517.55C230.97 519.06 235.19 518.43 238.92 516.64C242.565 514.925 245.594 512.133 247.6 508.64C248.46 506.901 249.195 505.103 249.8 503.26C250.42 501.46 250.86 500.01 250.86 500.01C254.33 504.07 256.44 506.34 257.69 507.59C258.187 508.132 258.729 508.631 259.31 509.08C260.834 509.997 262.476 510.7 264.19 511.17C267.466 512.157 270.973 512.062 274.19 510.9C275.024 510.583 275.827 510.192 276.59 509.73C277.388 509.25 278.139 508.694 278.83 508.07C281.597 505.569 283.413 502.188 283.97 498.5C284.304 496.684 284.231 494.816 283.755 493.031C283.28 491.246 282.414 489.59 281.22 488.18C280.15 487.053 278.982 486.022 277.73 485.1C276.53 484.2 275.57 483.54 275.57 483.54L276.96 482.86L278.19 482.24C279.994 481.294 281.591 479.997 282.888 478.426C284.184 476.855 285.154 475.041 285.74 473.09C286.379 471.134 286.609 469.069 286.419 467.02C286.228 464.972 285.619 462.984 284.63 461.18C283.412 459.032 281.634 457.255 279.486 456.036C277.337 454.818 274.899 454.204 272.43 454.26C269.95 454.251 267.495 454.77 265.231 455.784C262.967 456.798 260.945 458.283 259.3 460.14C259.363 459.308 259.363 458.472 259.3 457.64C259.233 456.547 259.048 455.464 258.75 454.41C257.877 451.399 256.138 448.711 253.75 446.68C252.521 445.586 251.148 444.665 249.67 443.94C246.755 442.603 243.548 442.032 240.35 442.28C236.921 442.469 233.676 443.889 231.21 446.28C229.147 448.418 227.777 451.13 227.28 454.06C226.991 455.558 226.907 457.089 227.03 458.61C227.121 459.501 227.295 460.382 227.55 461.24C227.75 461.922 227.994 462.59 228.28 463.24C228.42 463.62 228.77 464.68 229.18 465.68C229.59 466.68 230.07 467.62 230.47 467.73Z" fill="#F98638"/>
<path d="M226.7 945.09C225.94 938.51 222.64 905.74 230.95 863.77C239.26 821.8 259.15 770.65 304.77 727.32C335.598 698.117 373.059 676.841 413.93 665.32C454.6 653.9 498.05 652.56 539.77 663.83C595.77 678.96 644.17 715.6 677.69 765.29C711.21 814.98 729.91 877.73 726.61 945.06H226.7V945.09Z" fill="#353519"/>
<path d="M226.471 945.09H880.361C886.272 924.486 889.631 903.233 890.361 881.81C891.251 853.58 887.421 819.86 872.071 785.68C849.401 735.2 806.931 695.58 756.311 672.13C705.691 648.68 646.911 641.39 591.641 655.56C533.391 670.5 492.571 705.8 465.641 739.04C438.711 772.28 425.641 803.48 422.941 810.21C403.427 744.99 385.041 696.323 367.781 664.21C350.521 632.097 334.367 616.553 319.321 617.58C300.254 618.867 282.984 646.8 267.511 701.38C252.037 755.96 238.357 837.197 226.471 945.09Z" fill="#666538"/>
<path d="M553.25 765.9L529.25 855.23L505.25 944.55H614.52L590.52 855.23L566.52 765.9C566.124 764.437 565.257 763.145 564.053 762.224C562.849 761.303 561.376 760.804 559.86 760.804C558.344 760.804 556.871 761.303 555.667 762.224C554.463 763.145 553.596 764.437 553.2 765.9H553.25Z" fill="#F98638"/>
<path d="M320.91 865.87L310.28 905.48L299.65 945.09H349.9L339.27 905.48L328.64 865.87C328.413 865.018 327.911 864.265 327.212 863.728C326.514 863.191 325.657 862.9 324.775 862.9C323.894 862.9 323.037 863.191 322.338 863.728C321.639 864.265 321.137 865.018 320.91 865.87V865.87Z" fill="#F98638"/>
<path d="M400.53 945.09H370.59H340.65L352.84 666.39L365.03 387.69H370.59H376.15L388.34 666.39L400.53 945.09Z" fill="#F4ECE5"/>
<path d="M649.95 945.09H622.37H594.8L605.74 751.17L616.67 557.26H622.23H627.79L638.87 751.17L649.95 945.09Z" fill="#F4ECE5"/>
<path d="M747.91 479.64C747.644 479.637 747.386 479.551 747.172 479.393C746.959 479.235 746.8 479.013 746.72 478.76C742.654 466.016 736.734 453.94 729.15 442.92C716.753 424.719 699.909 409.99 680.217 400.131C660.525 390.272 638.64 385.611 616.64 386.59C602.862 387.086 589.237 389.648 576.22 394.19C575.987 394.275 575.734 394.29 575.492 394.231C575.251 394.172 575.033 394.042 574.866 393.859C574.698 393.676 574.589 393.446 574.553 393.201C574.516 392.955 574.554 392.704 574.66 392.48C574.803 392.181 575.058 391.951 575.37 391.84C588.632 387.214 602.514 384.605 616.55 384.1C638.97 383.098 661.274 387.847 681.343 397.893C701.411 407.939 718.577 422.95 731.21 441.5C738.936 452.722 744.967 465.021 749.11 478C749.207 478.315 749.175 478.657 749.022 478.949C748.868 479.241 748.605 479.461 748.29 479.56L748.1 479.61L747.91 479.64Z" fill="#666538"/>
<path d="M395.52 945.09C385.26 928.6 382.1 911.09 384.75 895.55C387.4 880.01 395.86 866.55 408.87 857.99C418.821 851.76 430.098 847.957 441.79 846.89C454.4 845.7 467.79 847.68 479.3 854.89C488.539 860.626 495.564 869.321 499.23 879.56C501.215 884.883 502.329 890.492 502.53 896.17C511.811 893.603 521.685 894.212 530.58 897.9C538.65 901.35 544.82 907.23 547.2 914.26C548.934 919.696 548.578 925.583 546.2 930.77C543.541 936.654 539.23 941.64 533.79 945.12H395.52V945.09Z" fill="#E9CF81"/>
<path d="M794.6 693.31L788.71 693.47L782.82 693.62C782.787 693.623 782.754 693.613 782.728 693.593C782.702 693.572 782.685 693.543 782.68 693.51C782.676 693.479 782.682 693.446 782.699 693.419C782.715 693.392 782.74 693.371 782.77 693.36C787.126 691.877 791.119 689.492 794.49 686.36C797.432 683.644 799.544 680.148 800.58 676.28C801.426 672.56 801.219 668.678 799.98 665.07C798.77 661.239 796.632 657.767 793.754 654.963C790.877 652.159 787.351 650.11 783.49 649C777.179 646.998 770.432 646.811 764.02 648.46C770.125 647.062 775.582 643.649 779.51 638.77C783.016 634.501 785.001 629.185 785.152 623.662C785.302 618.139 783.609 612.724 780.34 608.27C777.353 604.009 773.055 600.842 768.101 599.252C763.147 597.661 757.809 597.734 752.9 599.46C747.635 601.23 743.023 604.54 739.66 608.96C742.466 603.462 743.513 597.234 742.66 591.12C741.845 585.192 739.105 579.697 734.86 575.48C730.493 571.269 724.88 568.585 718.86 567.83C713.04 566.982 707.108 568.207 702.1 571.29C696.1 575.11 692.16 581.8 690.96 589.42C689.705 597.731 691.669 606.207 696.45 613.12C696.494 613.17 696.519 613.234 696.519 613.3C696.519 613.366 696.494 613.43 696.45 613.48C696.4 613.522 696.336 613.546 696.27 613.546C696.204 613.546 696.14 613.522 696.09 613.48C693.598 611.656 690.769 610.344 687.767 609.619C684.765 608.895 681.649 608.773 678.6 609.26C675.687 609.591 672.885 610.574 670.405 612.137C667.924 613.7 665.828 615.803 664.272 618.288C662.716 620.773 661.741 623.577 661.418 626.491C661.096 629.405 661.435 632.355 662.41 635.12C663.343 638.275 664.931 641.197 667.072 643.696C669.212 646.195 671.856 648.214 674.83 649.62C674.83 649.62 674.83 649.62 674.83 649.62C671.069 648.833 667.189 648.796 663.414 649.512C659.639 650.227 656.042 651.681 652.83 653.79C646.91 657.7 642.83 663.58 641.99 669.79C641.385 675.525 642.971 681.276 646.43 685.89C650.16 691.105 655.523 694.927 661.67 696.75L655.61 696.91L649.55 697.07C641.539 697.285 633.942 700.67 628.426 706.483C622.909 712.295 619.926 720.059 620.13 728.07V728.07C620.345 736.08 623.73 743.678 629.542 749.194C635.355 754.711 643.119 757.694 651.13 757.49L676.06 756.82L700.99 756.16C701.617 787.62 702.243 819.08 702.87 850.54C703.497 882 704.123 913.463 704.75 944.93L727.75 945.3L750.75 945.67L748.56 850.31L746.36 754.95L771.29 754.29L796.22 753.63C804.144 753.285 811.616 749.841 817.025 744.039C822.434 738.237 825.347 730.543 825.136 722.613C824.924 714.684 821.606 707.155 815.896 701.65C810.186 696.144 802.542 693.102 794.61 693.18L794.6 693.31Z" fill="#BAB653"/>
<path d="M304.16 145.41C304.195 145.113 304.317 144.833 304.51 144.605C304.703 144.377 304.96 144.211 305.247 144.128C305.534 144.044 305.839 144.048 306.124 144.137C306.41 144.226 306.662 144.398 306.85 144.63C317.25 157.607 326.523 171.447 334.57 186C345.722 206.136 354.449 227.521 360.57 249.71C366.465 271.112 369.893 293.118 370.79 315.3C371.446 331.479 370.76 347.684 368.74 363.75C368.704 364.047 368.581 364.328 368.385 364.555C368.19 364.783 367.932 364.947 367.643 365.029C367.355 365.11 367.049 365.104 366.763 365.012C366.478 364.919 366.227 364.745 366.04 364.51C357.962 354.417 350.556 343.804 343.87 332.74C320.707 294.445 306.75 251.296 303.1 206.69C301.401 186.279 301.756 165.749 304.16 145.41V145.41Z" fill="#F4ECE5"/>
<path d="M599.43 342.09C599.717 342.173 599.973 342.339 600.166 342.567C600.359 342.795 600.481 343.074 600.516 343.371C600.551 343.667 600.498 343.968 600.364 344.234C600.23 344.501 600.02 344.722 599.76 344.87C585.276 353.047 570.121 359.976 554.46 365.58C496.222 386.419 432.871 388.225 373.54 370.74C373.254 370.656 372.999 370.489 372.807 370.26C372.615 370.032 372.494 369.752 372.46 369.456C372.426 369.159 372.48 368.86 372.615 368.594C372.75 368.328 372.961 368.107 373.22 367.96C384.482 361.608 396.147 356 408.14 351.17C449.673 334.462 494.514 327.616 539.14 331.17C559.552 332.78 579.75 336.439 599.43 342.09V342.09Z" fill="#F4ECE5"/>
<path d="M364.859 371.68C365.138 371.573 365.442 371.552 365.732 371.619C366.023 371.687 366.287 371.841 366.489 372.06C366.695 372.278 366.832 372.552 366.882 372.847C366.932 373.143 366.892 373.447 366.769 373.72C359.928 388.884 351.805 403.437 342.489 417.22C317.115 454.828 283.307 485.989 243.759 508.22C229.646 516.163 214.894 522.917 199.659 528.41C199.373 528.517 199.062 528.536 198.765 528.463C198.469 528.389 198.202 528.228 197.999 528C197.797 527.78 197.664 527.505 197.616 527.21C197.568 526.915 197.607 526.613 197.729 526.34C203.064 514.556 209.167 503.134 215.999 492.15C239.601 454.123 271.707 422.092 309.789 398.58C327.2 387.794 345.649 378.783 364.859 371.68V371.68Z" fill="#F4ECE5"/>
<path d="M588 304.42C587.7 304.421 587.411 304.311 587.19 304.11C586.96 303.914 586.81 303.64 586.77 303.34C583.887 284.737 578.291 266.658 570.16 249.68C558.25 224.56 538.16 195.84 504.56 174.44C478.769 158.123 449.232 148.677 418.76 147C400.604 145.846 382.376 147.315 364.64 151.36C364.481 151.399 364.316 151.405 364.154 151.38C363.993 151.354 363.838 151.296 363.7 151.21C363.417 151.034 363.216 150.754 363.14 150.43C363.064 150.109 363.119 149.772 363.291 149.491C363.463 149.21 363.739 149.008 364.06 148.93C382.039 144.83 400.516 143.341 418.92 144.51C449.819 146.203 479.771 155.78 505.92 172.33C520.516 181.59 533.682 192.933 545 206C556.482 219.378 566.025 234.304 573.35 250.34C578.176 260.8 582.1 271.652 585.08 282.78C586.879 289.422 588.272 296.168 589.25 302.98C589.293 303.307 589.206 303.638 589.007 303.902C588.809 304.165 588.516 304.341 588.19 304.39H588V304.42Z" fill="#666538"/>
<path d="M440.34 752.18C437.487 763.957 436.283 776.072 436.76 788.18C437.203 800.332 439.733 812.316 444.24 823.61C447.297 831.108 451.332 838.169 456.24 844.61C461.13 851.061 466.934 856.764 473.47 861.54C480.374 866.664 488.423 870.028 496.92 871.34C504.92 872.61 513.37 872.2 522.54 871.1C528.65 870.314 534.856 870.742 540.8 872.36C546.442 873.932 551.644 876.786 556 880.7C559.965 884.389 562.989 888.973 564.82 894.07C566.677 899.149 567.854 904.452 568.32 909.84C568.49 911.59 568.74 920.4 568.9 928.78C569.06 937.16 569.13 945.09 568.95 945.09H596.14C596.14 945.09 596.38 940.26 596.41 933.53C596.49 925.851 596.156 918.173 595.41 910.53C594.75 903.972 593.549 897.48 591.82 891.12C589.501 882.771 585.992 874.799 581.4 867.45C578.445 862.692 574.859 858.355 570.74 854.56C566.635 850.765 561.897 847.718 556.74 845.56C550.8 843.13 544.54 842.42 538.21 842.37C531.88 842.32 525.47 842.94 519.21 843.18C512.829 843.466 506.445 842.689 500.32 840.88C494.191 839.08 488.518 835.991 483.68 831.82C468.59 818.61 464.94 799.82 466.24 780.39C467.54 760.96 473.79 740.69 478.51 724.49C480.82 716.54 483.42 707.85 486.33 698.49C489.24 689.13 492.43 679.14 495.96 668.56L482.1 663.56L468.24 658.56C464.66 668.56 461.167 678.893 457.76 689.56C454.353 700.227 451.087 711.227 447.96 722.56C446.573 727.587 445.24 732.587 443.96 737.56C442.68 742.533 441.473 747.407 440.34 752.18Z" fill="#BAB653"/>
<path d="M467.13 771.16C468.103 766.68 469.07 762.207 470.03 757.74L472.94 744.32C473.05 743.86 473.15 743.49 473.23 743.17C473.31 742.85 473.39 742.57 473.46 742.29C473.62 741.64 473.85 740.76 474.19 739.51C474.53 738.26 474.98 736.64 475.59 734.51C478.17 725.51 480.5 717.75 482.18 712.19C483.86 706.63 484.9 703.31 484.9 703.31C486.38 698.58 488.04 693.31 489.9 687.45C491.76 681.59 493.79 675.29 496 668.45L482.14 663.45L468.28 658.45C465.56 665.78 463.13 672.57 460.98 678.74C458.83 684.91 456.98 690.43 455.4 695.22C455.06 696.22 451.93 705.84 448.34 718.47C444.75 731.1 440.72 746.78 438.57 759.92C438.06 763.01 437.57 766.28 437.27 769.79C436.97 773.3 436.71 777.05 436.67 781.09C436.67 783.69 436.67 786.09 436.79 788.21C436.91 790.33 437.02 792.21 437.15 793.77L452.15 782.45L467.13 771.16Z" fill="#666538"/>
<path d="M487.83 843.15C481.047 836.325 472.126 832.036 462.56 831C455.64 830.121 448.61 830.913 442.06 833.31C441.8 832.31 441.52 831.31 441.18 830.4C439.687 825.957 437.293 821.871 434.149 818.395C431.005 814.919 427.178 812.129 422.906 810.2C418.635 808.27 414.012 807.242 409.326 807.18C404.639 807.118 399.99 808.024 395.67 809.84C393.377 810.78 391.183 811.946 389.12 813.32C386.354 806.517 381.315 800.884 374.863 797.378C368.41 793.872 360.942 792.71 353.73 794.09C350.184 794.756 346.823 796.175 343.872 798.25C340.921 800.325 338.449 803.008 336.623 806.119C334.797 809.231 333.659 812.697 333.286 816.285C332.913 819.873 333.313 823.5 334.46 826.92C336.877 834.232 341.872 840.413 348.514 844.311C355.155 848.209 362.988 849.555 370.55 848.1C371.05 848 371.55 847.88 372.04 847.74C372.246 851.149 372.918 854.514 374.04 857.74C375.534 862.182 377.928 866.268 381.073 869.743C384.217 873.217 388.044 876.007 392.315 877.936C396.586 879.865 401.209 880.894 405.895 880.956C410.58 881.019 415.229 880.115 419.55 878.3C421.794 877.39 423.941 876.257 425.96 874.92C427.109 876.71 428.428 878.384 429.9 879.92C436.755 886.634 445.633 890.9 455.158 892.059C464.683 893.218 474.325 891.204 482.59 886.33C490.01 881.63 495.11 874.51 496.13 866.09C497.15 857.67 493.9 849.49 487.83 843.15Z" fill="#BAB653"/>
<path d="M474.9 862.79H474.79H474.68C467.51 861.52 460.33 860.06 453.2 858.41C446.07 856.76 439 854.92 432 852.92C415.214 848.104 398.742 842.253 382.68 835.4C366.515 828.511 350.789 820.636 335.59 811.82C335.447 811.739 335.322 811.63 335.222 811.499C335.122 811.369 335.05 811.219 335.01 811.06C334.964 810.901 334.952 810.735 334.973 810.571C334.993 810.407 335.047 810.249 335.13 810.106C335.213 809.963 335.324 809.839 335.456 809.74C335.588 809.641 335.739 809.57 335.9 809.53C336.057 809.487 336.221 809.477 336.383 809.499C336.544 809.522 336.7 809.576 336.84 809.66C351.951 818.426 367.587 826.254 383.66 833.1C399.616 839.915 415.981 845.73 432.66 850.51C439.61 852.51 446.66 854.32 453.73 855.96C460.8 857.6 467.95 859.05 475.09 860.31C475.411 860.376 475.695 860.563 475.882 860.834C476.068 861.104 476.143 861.436 476.09 861.76C476.032 862.043 475.878 862.298 475.653 862.48C475.429 862.662 475.149 862.761 474.86 862.76L474.9 862.79Z" fill="#666538"/>
<path d="M539.65 712.9C542.157 718.498 542.905 724.725 541.795 730.758C540.684 736.79 537.766 742.342 533.429 746.679C529.092 751.017 523.54 753.934 517.507 755.045C511.475 756.156 505.248 755.408 499.65 752.9V752.9C497.46 758.622 493.585 763.545 488.537 767.018C483.489 770.49 477.507 772.35 471.38 772.35C465.253 772.35 459.27 770.49 454.223 767.018C449.175 763.545 445.3 758.622 443.11 752.9V752.9C437.512 755.414 431.282 756.166 425.247 755.057C419.212 753.948 413.657 751.031 409.318 746.692C404.979 742.353 402.061 736.798 400.953 730.763C399.844 724.727 400.596 718.498 403.11 712.9C397.387 710.712 392.463 706.839 388.989 701.792C385.515 696.745 383.655 690.762 383.655 684.635C383.655 678.508 385.515 672.526 388.989 667.479C392.463 662.432 397.387 658.558 403.11 656.37V656.37C400.596 650.772 399.844 644.543 400.953 638.508C402.061 632.472 404.979 626.917 409.318 622.578C413.657 618.239 419.212 615.322 425.247 614.213C431.282 613.104 437.512 613.857 443.11 616.37V616.37C445.3 610.648 449.175 605.725 454.223 602.252C459.27 598.78 465.253 596.92 471.38 596.92C477.507 596.92 483.489 598.78 488.537 602.252C493.585 605.725 497.46 610.648 499.65 616.37V616.37C505.248 613.862 511.475 613.114 517.507 614.225C523.54 615.336 529.092 618.253 533.429 622.591C537.766 626.928 540.684 632.48 541.795 638.513C542.905 644.545 542.157 650.772 539.65 656.37V656.37C545.373 658.558 550.297 662.432 553.771 667.479C557.244 672.526 559.104 678.508 559.104 684.635C559.104 690.762 557.244 696.745 553.771 701.792C550.297 706.839 545.373 710.712 539.65 712.9V712.9Z" fill="#DEB8FC"/>
<path d="M504.05 691.39C502.846 698.95 499.058 705.859 493.331 710.939C487.604 716.02 480.292 718.957 472.642 719.251C464.992 719.545 457.477 717.177 451.377 712.551C445.277 707.925 440.97 701.327 439.19 693.881C437.409 686.436 438.265 678.603 441.613 671.718C444.96 664.833 450.591 659.321 457.546 656.122C464.501 652.923 472.35 652.235 479.756 654.175C487.162 656.115 493.666 660.562 498.16 666.76C500.719 670.274 502.556 674.259 503.567 678.486C504.578 682.713 504.742 687.099 504.05 691.39Z" fill="#F4ECE5"/>
<path d="M383.51 378C383.515 381.144 382.429 384.192 380.438 386.625C378.447 389.058 375.675 390.726 372.592 391.344C369.51 391.962 366.308 391.492 363.534 390.015C360.759 388.538 358.582 386.144 357.374 383.241C356.165 380.339 356.001 377.108 356.908 374.098C357.815 371.088 359.738 368.485 362.349 366.734C364.959 364.982 368.096 364.19 371.226 364.492C374.355 364.794 377.283 366.172 379.51 368.39C380.778 369.648 381.785 371.146 382.471 372.795C383.158 374.444 383.511 376.213 383.51 378V378Z" fill="#F98638"/>
<path d="M544.71 402C544.702 401.794 544.753 401.59 544.857 401.413C544.962 401.236 545.116 401.092 545.3 401C545.488 400.898 545.703 400.856 545.915 400.879C546.128 400.902 546.328 400.99 546.49 401.13C567.797 419.158 585.266 441.282 597.859 466.19C610.453 491.099 617.914 518.283 619.8 546.13C619.809 546.337 619.756 546.542 619.65 546.72C619.543 546.898 619.387 547.04 619.2 547.13C619.01 547.23 618.794 547.271 618.58 547.248C618.366 547.225 618.164 547.139 618 547C610.963 541.038 604.326 534.621 598.13 527.79C590.537 519.424 583.648 510.447 577.53 500.95C566.422 483.677 557.936 464.852 552.35 445.09C548.369 431.018 545.809 416.583 544.71 402V402Z" fill="#F4ECE5"/>
<path d="M778.39 499.32C778.603 499.34 778.805 499.422 778.971 499.556C779.137 499.69 779.261 499.87 779.326 500.074C779.391 500.277 779.394 500.495 779.336 500.701C779.279 500.906 779.162 501.09 779 501.23C757.789 519.364 733.152 533.053 706.55 541.484C679.948 549.915 651.924 552.916 624.14 550.31C623.927 550.292 623.724 550.212 623.557 550.079C623.39 549.947 623.265 549.767 623.2 549.564C623.135 549.36 623.131 549.142 623.19 548.937C623.249 548.732 623.367 548.548 623.53 548.41C630.547 542.418 637.95 536.893 645.69 531.87C655.164 525.723 665.132 520.371 675.49 515.87C694.32 507.682 714.26 502.334 734.66 500C749.177 498.314 763.827 498.086 778.39 499.32V499.32Z" fill="#F4ECE5"/>
<path d="M620.23 554.33C620.433 554.264 620.65 554.26 620.855 554.317C621.06 554.375 621.244 554.491 621.383 554.653C621.522 554.814 621.61 555.013 621.636 555.224C621.662 555.435 621.626 555.65 621.53 555.84C609.052 580.799 591.688 602.998 570.469 621.119C549.249 639.24 524.605 652.914 498 661.33C497.797 661.395 497.58 661.398 497.375 661.339C497.171 661.28 496.988 661.162 496.85 661C496.711 660.839 496.623 660.639 496.598 660.427C496.573 660.215 496.612 660 496.71 659.81C500.847 651.558 505.524 643.587 510.71 635.95C528.63 609.527 552.433 587.619 580.25 571.95C592.954 564.754 606.348 558.851 620.23 554.33V554.33Z" fill="#F4ECE5"/>
<path d="M632.34 555.16C632.338 557.746 631.44 560.252 629.797 562.25C628.155 564.248 625.87 565.615 623.333 566.118C620.796 566.62 618.163 566.228 615.883 565.007C613.603 563.786 611.817 561.812 610.829 559.422C609.84 557.032 609.712 554.373 610.464 551.898C611.216 549.424 612.804 547.287 614.955 545.851C617.107 544.415 619.689 543.77 622.263 544.025C624.837 544.28 627.243 545.42 629.07 547.25C630.109 548.289 630.932 549.522 631.493 550.879C632.054 552.236 632.342 553.691 632.34 555.16V555.16Z" fill="#F98638"/>
<path d="M503 620.48C502.835 620.481 502.671 620.447 502.52 620.38C502.364 620.319 502.224 620.223 502.11 620.1C493.719 611.442 486.54 601.687 480.77 591.1C471.733 574.72 466.513 556.51 465.5 537.83C464 509 473 485.12 483.35 467.63C490.372 455.696 499.135 444.877 509.35 435.53C509.6 435.311 509.926 435.2 510.258 435.221C510.589 435.241 510.899 435.392 511.12 435.64C511.23 435.761 511.314 435.903 511.367 436.058C511.421 436.213 511.442 436.377 511.43 436.54C511.421 436.704 511.379 436.864 511.306 437.012C511.234 437.16 511.134 437.291 511.01 437.4C501.007 446.57 492.426 457.18 485.55 468.88C475.4 486.03 466.55 509.39 468.03 537.67C469.029 555.985 474.157 573.837 483.03 589.89C488.686 600.278 495.723 609.852 503.95 618.35C504.181 618.589 504.31 618.908 504.31 619.24C504.305 619.569 504.171 619.883 503.938 620.114C503.704 620.346 503.389 620.477 503.06 620.48H503Z" fill="#666538"/>
<path d="M142.659 740.85C134.299 755.8 129.529 771.85 128.759 787.17C127.989 802.49 131.219 817.09 138.839 829.11C145.299 839.3 154.609 847.18 162.839 852.77C168.477 856.576 174.432 859.888 180.639 862.67C184.834 864.52 189.147 866.09 193.549 867.37C196.989 868.361 200.477 869.179 203.999 869.82L202.259 854.69L200.509 839.55C200.509 839.55 179.439 837.09 164.759 823.55C150.079 810.01 141.759 785.3 167.369 740.88H142.659V740.85Z" fill="#BAB653"/>
<path d="M117.3 713.66C114.507 713.518 111.731 714.178 109.3 715.56C106.93 716.893 105.022 718.916 103.83 721.36C102.595 723.972 102.167 726.893 102.6 729.75C102.993 732.704 104.53 735.387 106.88 737.22C108.629 738.52 110.708 739.303 112.88 739.48C115.165 739.662 117.459 739.277 119.56 738.36C116.643 739.642 114.286 741.932 112.92 744.81C111.582 747.619 111.315 750.819 112.17 753.81C113.071 756.805 115.029 759.37 117.68 761.03C120.243 762.693 123.339 763.329 126.35 762.81C129.105 762.266 131.582 760.773 133.35 758.59C134.307 757.473 135.093 756.219 135.68 754.87C136.167 756.467 136.881 757.986 137.8 759.38C139.482 762.068 142.017 764.113 145 765.19C147.932 766.186 151.102 766.245 154.07 765.36C157.063 764.514 159.646 762.609 161.34 760C162.527 758.104 163.19 755.926 163.26 753.69C163.318 752.347 163.197 751.002 162.9 749.69C165.04 752.233 167.793 754.188 170.9 755.37C173.776 756.466 176.925 756.631 179.9 755.84C181.311 755.448 182.658 754.855 183.9 754.08C186.114 752.751 187.815 750.715 188.73 748.3C189.658 745.714 189.658 742.886 188.73 740.3C188.287 738.953 187.646 737.679 186.83 736.52C190.044 737.537 193.518 737.345 196.6 735.98C199.52 734.705 201.842 732.362 203.09 729.43C204.195 726.628 204.195 723.512 203.09 720.71C202.116 718.043 200.376 715.723 198.09 714.04C196.487 712.906 194.653 712.141 192.72 711.8C191.499 711.584 190.257 711.516 189.02 711.6C190.219 710.744 191.301 709.735 192.24 708.6C193.705 706.871 194.673 704.776 195.04 702.54C195.262 700.568 195.071 698.572 194.479 696.678C193.887 694.784 192.906 693.034 191.6 691.54C190.324 689.942 188.739 688.617 186.941 687.645C185.142 686.673 183.166 686.072 181.13 685.88C178.058 685.735 175.023 686.592 172.48 688.32C171.033 689.258 169.724 690.392 168.59 691.69C168.719 689.976 168.628 688.252 168.32 686.56C167.888 683.98 166.741 681.572 165.01 679.61C161.79 676.07 156.62 674.5 151.54 674.83C146.46 675.16 141.46 677.38 138.61 681.4C136.934 683.849 136.029 686.743 136.01 689.71C135.965 691.551 136.16 693.39 136.59 695.18C134.794 692.805 132.409 690.94 129.67 689.77C127.073 688.648 124.2 688.327 121.42 688.85C117.686 689.695 114.394 691.884 112.17 695C111.045 696.434 110.245 698.095 109.826 699.868C109.406 701.641 109.377 703.484 109.74 705.27C110.374 707.622 111.722 709.718 113.6 711.27C114.72 712.23 115.964 713.034 117.3 713.66V713.66Z" fill="#DEB8FC"/>
<path d="M142.7 712.92C140.482 712.216 138.135 712.014 135.83 712.33C134.667 712.491 133.554 712.903 132.566 713.536C131.578 714.17 130.74 715.011 130.11 716C129.26 717.318 128.839 718.867 128.905 720.434C128.971 722.001 129.521 723.509 130.48 724.75C131.382 726.032 132.597 727.062 134.009 727.741C135.422 728.42 136.985 728.726 138.55 728.63C138.39 728.63 138.13 729.01 137.89 729.4C137.65 729.79 137.44 730.2 137.36 730.33C136.785 731.272 136.416 732.324 136.276 733.419C136.136 734.513 136.23 735.624 136.55 736.68C136.884 737.733 137.448 738.699 138.2 739.508C138.952 740.317 139.874 740.95 140.9 741.36C141.977 741.74 143.122 741.889 144.261 741.798C145.4 741.707 146.506 741.377 147.51 740.83C149.6 739.867 151.345 738.286 152.51 736.3C152.991 735.304 153.408 734.279 153.76 733.23C154.11 732.23 154.36 731.38 154.36 731.38C156.36 733.69 157.55 734.98 158.26 735.7C158.545 736.006 158.852 736.29 159.18 736.55C160.051 737.065 160.985 737.465 161.96 737.74C163.828 738.299 165.826 738.243 167.66 737.58C168.138 737.404 168.597 737.179 169.03 736.91C169.484 736.637 169.913 736.322 170.31 735.97C171.888 734.544 172.924 732.614 173.24 730.51C173.431 729.473 173.389 728.407 173.118 727.388C172.846 726.37 172.352 725.424 171.67 724.62C171.056 723.979 170.387 723.393 169.67 722.87C168.99 722.35 168.44 721.98 168.44 721.98L169.23 721.59L169.94 721.24C170.968 720.7 171.878 719.96 172.616 719.064C173.355 718.168 173.906 717.133 174.24 716.02C174.604 714.905 174.736 713.728 174.627 712.56C174.519 711.392 174.172 710.259 173.61 709.23C172.919 707.988 171.902 706.958 170.668 706.253C169.434 705.548 168.03 705.194 166.61 705.23C165.195 705.227 163.796 705.524 162.505 706.102C161.214 706.679 160.06 707.524 159.12 708.58C159.156 708.108 159.156 707.633 159.12 707.16C159.085 706.534 158.981 705.914 158.81 705.31C158.314 703.605 157.338 702.077 156 700.91C155.292 700.294 154.509 699.77 153.67 699.35C152.009 698.572 150.179 698.228 148.35 698.35C146.392 698.471 144.543 699.291 143.14 700.66C141.961 701.879 141.18 703.428 140.9 705.1C140.736 705.953 140.685 706.824 140.75 707.69C140.804 708.198 140.904 708.7 141.05 709.19C141.164 709.576 141.304 709.954 141.47 710.32C141.55 710.53 141.75 711.14 141.98 711.71C142.21 712.28 142.48 712.86 142.7 712.92Z" fill="#F98638"/>
<path d="M302.78 802.31L297.78 802.44L292.73 802.57C292.717 802.571 292.703 802.57 292.691 802.566C292.678 802.563 292.666 802.556 292.656 802.548C292.646 802.54 292.637 802.529 292.631 802.518C292.625 802.506 292.621 802.493 292.62 802.48C292.614 802.452 292.619 802.423 292.634 802.399C292.649 802.375 292.672 802.357 292.7 802.35C296.421 801.081 299.829 799.036 302.7 796.35C305.221 794.031 307.029 791.041 307.91 787.73C308.631 784.551 308.454 781.234 307.4 778.15C306.845 776.422 306.072 774.772 305.1 773.24C302.294 769.026 298.124 765.905 293.29 764.4C287.892 762.691 282.123 762.532 276.64 763.94C281.862 762.749 286.528 759.827 289.88 755.65C292.881 752.001 294.58 747.456 294.711 742.733C294.841 738.011 293.395 733.379 290.6 729.57C288.045 725.923 284.368 723.212 280.128 721.85C275.889 720.489 271.32 720.552 267.12 722.03C262.618 723.546 258.672 726.374 255.79 730.15C258.184 725.449 259.071 720.124 258.33 714.9C257.638 709.828 255.294 705.125 251.66 701.52C247.929 697.93 243.137 695.643 238 695C233.016 694.286 227.94 695.348 223.66 698C218.56 701.27 215.16 707 214.13 713.51C213.056 720.619 214.738 727.869 218.83 733.78C218.867 733.823 218.887 733.878 218.887 733.935C218.887 733.992 218.867 734.047 218.83 734.09C218.788 734.126 218.735 734.146 218.68 734.146C218.625 734.146 218.572 734.126 218.53 734.09C216.393 732.525 213.967 731.4 211.392 730.78C208.817 730.161 206.145 730.059 203.53 730.48C201.036 730.761 198.637 731.601 196.513 732.938C194.389 734.275 192.594 736.074 191.261 738.201C189.929 740.329 189.094 742.729 188.819 745.224C188.543 747.719 188.834 750.243 189.67 752.61C190.465 755.302 191.818 757.796 193.641 759.931C195.464 762.066 197.716 763.793 200.25 765C193.764 763.655 187.01 764.939 181.47 768.57C176.41 771.91 172.93 776.94 172.2 782.27C171.692 787.162 173.049 792.066 176 796C179.179 800.457 183.754 803.726 189 805.29L183.82 805.43L178.64 805.57C171.783 805.753 165.28 808.652 160.56 813.629C155.84 818.606 153.29 825.253 153.47 832.11V832.11C153.555 835.508 154.31 838.855 155.689 841.961C157.069 845.067 159.048 847.871 161.511 850.212C163.975 852.553 166.876 854.386 170.048 855.606C173.221 856.825 176.602 857.408 180 857.32L201.33 856.75L222.66 856.18L224.43 900.63L226.2 945.09H263L262.27 900.09L261.55 855.09L282.87 854.52L304.2 853.96C311.058 853.777 317.563 850.877 322.283 845.898C327.004 840.919 329.553 834.268 329.37 827.41V827.41C329.28 824.015 328.523 820.671 327.141 817.569C325.758 814.467 323.778 811.667 321.313 809.331C318.849 806.994 315.948 805.166 312.776 803.951C309.605 802.736 306.225 802.158 302.83 802.25L302.78 802.31Z" fill="#E9CF81"/>
<path d="M261.501 855.15H251.111H240.721L251.381 869.48L262.041 883.81L261.771 869.48L261.501 855.15Z" fill="#353519"/>
<path d="M209.18 766.25H200.24C199.91 766.247 199.595 766.115 199.363 765.88C199.13 765.646 199 765.33 199 765C199.003 764.669 199.135 764.353 199.369 764.119C199.603 763.885 199.919 763.753 200.25 763.75H209.19C209.522 763.75 209.839 763.882 210.074 764.116C210.308 764.351 210.44 764.668 210.44 765C210.443 765.165 210.412 765.329 210.35 765.482C210.288 765.634 210.197 765.773 210.08 765.89C209.963 766.007 209.824 766.098 209.672 766.16C209.519 766.222 209.355 766.253 209.19 766.25H209.18Z" fill="#666538"/>
<path d="M293.62 804.11H265.74C265.411 804.108 265.096 803.979 264.86 803.75C264.743 803.633 264.65 803.495 264.586 803.342C264.522 803.189 264.49 803.025 264.49 802.86C264.49 802.696 264.522 802.533 264.586 802.382C264.649 802.231 264.743 802.094 264.86 801.98C264.975 801.863 265.112 801.77 265.263 801.707C265.414 801.643 265.576 801.61 265.74 801.61H293.62C293.951 801.612 294.267 801.745 294.501 801.979C294.735 802.213 294.868 802.529 294.87 802.86C294.87 803.191 294.739 803.509 294.504 803.744C294.27 803.978 293.952 804.11 293.62 804.11V804.11Z" fill="#666538"/>
<path d="M252.92 735.46C252.795 735.464 252.67 735.447 252.55 735.41C252.33 735.336 252.134 735.204 251.983 735.028C251.832 734.852 251.73 734.639 251.69 734.41C251.66 734.247 251.663 734.08 251.7 733.919C251.736 733.757 251.804 733.604 251.9 733.47L253.33 731.47L254.75 729.47C254.833 729.309 254.949 729.169 255.09 729.057C255.232 728.945 255.396 728.866 255.572 728.824C255.747 728.782 255.93 728.778 256.107 728.813C256.284 728.849 256.451 728.922 256.597 729.028C256.743 729.133 256.864 729.27 256.953 729.427C257.041 729.584 257.094 729.759 257.109 729.938C257.124 730.118 257.099 730.299 257.037 730.469C256.975 730.638 256.877 730.792 256.75 730.92L255.33 732.92L253.9 734.92C253.782 735.086 253.624 735.22 253.44 735.31C253.281 735.399 253.103 735.45 252.92 735.46V735.46Z" fill="#666538"/>
<path d="M235.34 678.58C235.34 678.58 242.85 659.95 254.08 637.73C265.31 615.51 280.29 589.73 295.21 575.35C298.65 571.918 303.165 569.773 307.998 569.272C312.831 568.771 317.689 569.946 321.76 572.6C325.895 575.104 329.036 578.962 330.65 583.519C332.263 588.077 332.249 593.052 330.61 597.6C328.467 603.557 325.472 609.171 321.72 614.27C316.304 621.682 310.16 628.532 303.38 634.72L275.71 663.36L248.05 692C247.158 690.554 246.155 689.18 245.05 687.89C242.171 684.434 238.914 681.311 235.34 678.58Z" fill="#BAB653"/>
<path d="M247 679.87C246.734 679.868 246.476 679.784 246.26 679.63C245.993 679.432 245.814 679.138 245.76 678.81C245.711 678.482 245.794 678.148 245.99 677.88L279.59 632.06L313.18 586.24C313.376 585.972 313.671 585.792 314 585.74C314.328 585.696 314.66 585.779 314.93 585.97C315.198 586.166 315.378 586.461 315.43 586.79C315.473 587.118 315.391 587.45 315.2 587.72L281.6 633.54L248 679.36C247.876 679.518 247.719 679.648 247.54 679.74C247.371 679.821 247.187 679.866 247 679.87V679.87Z" fill="#666538"/>
<path d="M46.5241 895.722C35.5122 895.721 24.8575 891.815 16.4544 884.698C8.05124 877.582 2.44425 867.715 0.630282 856.854L0.592776 856.624L0.740969 856.446C3.21052 853.485 5.28554 850.216 6.9141 846.721C5.114 848.685 3.07464 850.416 0.843783 851.872L0.0992149 852.367L0.0562767 851.474C0.0187767 850.704 1.75081e-05 849.938 1.75081e-05 849.199C-0.00373505 844.855 0.595752 840.531 1.78131 836.352C7.18264 817.367 8.10626 796.981 4.52674 775.759C3.9151 772.12 3.60777 768.436 3.60796 764.747C3.61346 749.153 9.16952 734.071 19.2813 722.2C29.393 710.33 43.4001 702.446 58.7944 699.961C74.1886 697.477 89.9647 700.553 103.298 708.639C116.631 716.726 126.65 729.294 131.561 744.094L131.71 744.545L131.27 744.723C127.962 746.123 124.455 746.994 120.876 747.302C124.658 748.172 128.537 748.545 132.416 748.41L132.825 748.396L132.925 748.794C134.225 754.012 134.882 759.369 134.882 764.747L134.879 765.329C134.867 769.447 135.723 773.521 137.391 777.286C139.059 781.051 141.502 784.423 144.56 787.18C149.53 791.702 153.461 797.247 156.083 803.433C158.706 809.62 159.957 816.301 159.751 823.017C159.544 829.733 157.886 836.325 154.888 842.338C151.891 848.352 147.627 853.645 142.389 857.854L142.146 858.05L141.862 857.92C135.871 855.202 131.507 852.241 128.315 848.706C130.443 853.242 133.308 857.394 136.793 860.993L137.244 861.458L136.684 861.784C129.571 865.932 121.483 868.116 113.249 868.113L113.014 868.112C112.932 868.111 112.848 868.111 112.765 868.111C106.683 868.047 100.65 869.198 95.0193 871.497C89.3884 873.796 84.2732 877.196 79.9737 881.497C75.6261 885.976 70.4278 889.541 64.6838 891.984C58.9398 894.427 52.7658 895.698 46.5241 895.722V895.722Z" fill="#BAB653"/>
<path d="M133.999 810.826C134.968 810.562 135.868 810.088 136.635 809.438C137.402 808.789 138.017 807.979 138.437 807.066C138.857 806.153 139.071 805.159 139.065 804.154C139.06 803.149 138.834 802.157 138.403 801.249L153.218 752.949L142.321 750.789L128.771 798.133C127.294 798.957 126.17 800.295 125.612 801.893C125.055 803.49 125.103 805.237 125.747 806.801C126.392 808.366 127.587 809.64 129.108 810.381C130.629 811.123 132.369 811.281 133.999 810.826V810.826Z" fill="#FFB6B6"/>
<path d="M154.082 738.838C152.509 738.214 150.778 738.109 149.142 738.538V738.548C148.59 738.68 148.056 738.878 147.552 739.138C146.999 739.409 146.481 739.749 146.012 740.148C144.996 740.991 144.211 742.078 143.732 743.308L136.512 755.888C136.304 756.245 136.177 756.642 136.139 757.053C136.101 757.464 136.153 757.879 136.292 758.268C136.427 758.659 136.646 759.016 136.932 759.315C137.219 759.613 137.567 759.846 137.952 759.998L139.512 760.608L146.922 763.518L149.652 764.598L151.492 765.318C151.876 765.47 152.289 765.536 152.702 765.514C153.114 765.491 153.517 765.38 153.883 765.187C154.249 764.994 154.568 764.725 154.82 764.397C155.072 764.069 155.25 763.691 155.342 763.288L158.602 749.198C159.373 747.224 159.33 745.026 158.483 743.084C157.636 741.142 156.053 739.615 154.082 738.838V738.838Z" fill="#3F3D56"/>
<path d="M178.919 770.14L182.585 793.509L147.76 793.968L152.343 771.515L178.919 770.14Z" fill="#FFB6B6"/>
<path d="M182.72 793.214L192.667 817.336L193.391 881.846L184.904 943.44H175.51L171.662 882.85L162.196 841.393L152.86 884.753L123.831 927.195H109.566L135.791 880.426L138.827 829.479C138.827 829.479 136.935 807.866 146.616 795.113L148.973 788.305L182.72 793.214Z" fill="#2F2E41"/>
<path d="M183.201 748.618C183.181 748.408 183.151 748.188 183.111 747.978C182.358 742.936 179.639 738.397 175.548 735.355C171.456 732.313 166.327 731.016 161.281 731.748C156.543 732.458 152.226 734.872 149.141 738.538V738.548C148.981 738.738 148.831 738.938 148.681 739.138C148.411 739.478 148.161 739.838 147.921 740.198C145.754 743.473 144.637 747.331 144.721 751.258V751.268C144.753 752.781 144.964 754.285 145.351 755.748C146.017 758.307 146.541 760.901 146.921 763.518C147.181 765.178 147.381 766.808 147.531 768.398C147.621 769.198 147.691 769.988 147.751 770.758V770.768C148.051 774.578 148.151 777.998 148.241 780.648C148.281 782.088 148.321 783.288 148.391 784.208C148.393 784.268 148.4 784.329 148.411 784.388C148.488 785.006 148.753 785.586 149.171 786.048C149.223 786.113 149.28 786.173 149.341 786.228C149.785 786.627 150.321 786.909 150.901 787.048C151.102 787.088 151.306 787.108 151.511 787.108H151.571L157.401 784.388L162.001 782.248L177.611 774.968C178.251 774.955 178.871 774.747 179.39 774.371C179.908 773.996 180.299 773.472 180.511 772.868V772.858C180.531 772.778 180.561 772.698 180.581 772.608C181.421 769.298 182.911 765.748 183.441 760.038C183.511 759.218 183.571 758.368 183.601 757.458V757.448C183.689 754.499 183.555 751.547 183.201 748.618Z" fill="#3F3D56"/>
<path d="M145.802 736.748C142.7 736.752 139.726 737.986 137.533 740.179C135.339 742.373 134.106 745.346 134.102 748.448V772.698C134.101 775.424 135.053 778.065 136.793 780.163C138.533 782.261 140.952 783.685 143.632 784.188H143.642C144.354 784.321 145.077 784.388 145.802 784.388H162.002V736.748H145.802Z" fill="#30A26B"/>
<path d="M155.002 768.398H143.142C142.804 768.398 142.469 768.465 142.157 768.595C141.844 768.725 141.561 768.915 141.322 769.155C141.083 769.394 140.894 769.679 140.765 769.992C140.637 770.304 140.571 770.64 140.572 770.978V778.068C140.572 778.751 140.842 779.406 141.324 779.889C141.806 780.373 142.46 780.646 143.142 780.648H155.002C155.686 780.646 156.341 780.374 156.825 779.89C157.308 779.407 157.581 778.752 157.582 778.068V770.978C157.582 770.639 157.516 770.304 157.386 769.991C157.256 769.678 157.066 769.393 156.827 769.154C156.587 768.914 156.303 768.724 155.99 768.594C155.677 768.465 155.341 768.398 155.002 768.398V768.398Z" fill="#3F3D56"/>
<path d="M176.911 766.155C180.145 762.05 181.853 756.948 181.741 751.723C181.741 741.216 175.482 732.668 167.79 732.668C163.66 732.668 159.769 735.137 157.115 739.44L158.274 740.154C160.674 736.262 164.143 734.029 167.79 734.029C174.732 734.029 180.379 741.967 180.379 751.723C180.493 756.626 178.899 761.416 175.872 765.275L176.911 766.155Z" fill="#30A26B"/>
<path d="M208.998 801.732C209.443 800.831 209.685 799.844 209.708 798.839C209.73 797.834 209.531 796.837 209.126 795.917C208.721 794.997 208.119 794.178 207.363 793.516C206.607 792.853 205.715 792.365 204.75 792.085L178.419 748.969L169.576 755.693L196.031 797.229C195.668 798.882 195.924 800.61 196.75 802.086C197.577 803.563 198.916 804.685 200.514 805.24C202.113 805.795 203.859 805.745 205.423 805.098C206.986 804.452 208.258 803.254 208.998 801.732Z" fill="#FFB6B6"/>
<path d="M187.561 754.228L183.111 747.978L180.731 744.638L179.18 742.458C178.694 741.498 178.017 740.648 177.191 739.958C175.78 738.778 174.006 738.119 172.167 738.094C170.328 738.069 168.536 738.678 167.094 739.82C165.652 740.961 164.648 742.565 164.25 744.361C163.852 746.156 164.085 748.034 164.911 749.678L169.531 763.428C169.664 763.819 169.88 764.178 170.164 764.478C170.448 764.779 170.793 765.015 171.176 765.17C171.559 765.326 171.971 765.397 172.384 765.38C172.798 765.362 173.202 765.256 173.571 765.068L175.061 764.308L177.411 763.108L179.521 762.038H179.531L183.441 760.038L184.771 759.368L186.531 758.468C186.898 758.278 187.22 758.011 187.476 757.686C187.731 757.361 187.914 756.985 188.012 756.583C188.109 756.181 188.12 755.763 188.042 755.356C187.964 754.95 187.8 754.565 187.561 754.228V754.228Z" fill="#3F3D56"/>
<path d="M167.542 697.358C165.562 693.031 160.338 693.911 155.614 694.482C153.255 694.846 151.02 695.78 149.103 697.202C147.187 698.624 145.646 700.493 144.614 702.645C142.595 707.007 142.209 711.949 143.526 716.571C144.233 719.719 145.919 722.563 148.343 724.692C150.838 726.698 162.566 731.443 163.542 727.358C162.322 732.688 164.777 731.854 168.412 735.939C170.294 730.284 171.177 719.629 173.059 713.975L173.909 711.421C174.507 709.627 175.105 707.829 175.536 705.988C176.079 703.675 176.287 701.023 174.851 699.131C173.414 697.239 169.795 697.166 169.068 699.428" fill="#2F2E41"/>
</svg>
