<svg width="270" height="127" viewBox="0 0 270 127" fill="none" xmlns="http://www.w3.org/2000/svg">
<path d="M114.4 102C142.567 102 165.4 79.1665 165.4 51C165.4 22.8335 142.567 0 114.4 0C86.2339 0 63.4004 22.8335 63.4004 51C63.4004 79.1665 86.2339 102 114.4 102Z" fill="#FABB5E"/>
<path d="M206.435 11.8707C181.718 8.52973 153.5 21.8893 147.094 45.9942C145.479 41.7084 142.544 38.0467 138.712 35.5382C134.88 33.0298 130.35 31.8044 125.777 32.0391C121.203 32.2738 116.822 33.9564 113.267 36.8439C109.712 39.7315 107.167 43.6743 106 48.1029L108.83 50.1296C161.797 61.5839 216.627 61.336 269.488 49.4032C252.296 31.3343 231.152 15.2116 206.435 11.8707Z" fill="#F0F0F0"/>
<path d="M100.435 79.8707C75.718 76.5297 47.4997 89.8893 41.0935 113.994C39.4791 109.708 36.5439 106.047 32.7122 103.538C28.8804 101.03 24.3504 99.8044 19.7766 100.039C15.2027 100.274 10.8219 101.956 7.26706 104.844C3.71218 107.731 1.16726 111.674 0 116.103L2.82971 118.13C55.7972 129.584 110.627 129.336 163.489 117.403C146.296 99.3343 125.152 83.2116 100.435 79.8707Z" fill="#F0F0F0"/>
</svg>
